<?xml version="1.0" encoding="utf-8"?>
<!-- Generator: Adobe Illustrator 19.2.1, SVG Export Plug-In . SVG Version: 6.00 Build 0)  -->
<svg version="1.1" id="Layer_1" xmlns="http://www.w3.org/2000/svg" xmlns:xlink="http://www.w3.org/1999/xlink" x="0px" y="0px"
	 viewBox="0 0 96 96" style="enable-background:new 0 0 96 96;" xml:space="preserve">
<path d="M72.4,7.8L46.9,13H14c-3.3,0-6,2.7-6,6v60c0,3.3,2.7,6,6,6h67v-8h8V57.2V34.4V13H73.6L72.4,7.8z M71.4,21H26.5l42.9-9.4
	L71.4,21z M14,17h13.3l-15,3.1C12.1,19.8,12,19.4,12,19C12,17.9,12.9,17,14,17z M14,81c-1.1,0-2-0.9-2-2V24.6c0.6,0.2,1.3,0.4,2,0.4
	h63v16H64.5C58.7,41,54,45.7,54,51.5S58.7,62,64.5,62H77v19H14z M78.5,58h-14c-3.6,0-6.5-2.9-6.5-6.5s2.9-6.5,6.5-6.5h15.1l5.4-3.4
	v13.2L78.5,58z M85,73h-4V61.2l4-2V73z M85,17v19.9l-4,2.5V21h-5.5l-0.9-4H85z"/>
<circle cx="64.5" cy="51.5" r="2.5"/>
</svg>
