<?xml version="1.0" encoding="utf-8"?>
<!-- Generator: Adobe Illustrator 19.2.1, SVG Export Plug-In . SVG Version: 6.00 Build 0)  -->
<svg version="1.1" id="Layer_1" xmlns="http://www.w3.org/2000/svg" xmlns:xlink="http://www.w3.org/1999/xlink" x="0px" y="0px"
	 viewBox="0 0 16 16" style="enable-background:new 0 0 16 16;" xml:space="preserve">
<g>
	<path d="M15,2h-1h-4V0H5v2H1H0v1h1.1L2,16h11l0.9-13h1V2z M6,1h3v1H6V1z M12.1,15H2.9L2.1,3H5h5h2.9L12.1,15z"/>
	<rect x="4.2" y="4" transform="matrix(0.999 -4.526605e-002 4.526605e-002 0.999 -0.4026 0.22)" width="1" height="10"/>
	<rect x="7" y="4" width="1" height="10"/>
	<rect x="5.2" y="8.5" transform="matrix(5.081489e-002 -0.9987 0.9987 5.081489e-002 0.7213 18.7589)" width="10" height="1"/>
</g>
</svg>
