<?xml version="1.0" encoding="utf-8"?>
<!-- Generator: Adobe Illustrator 19.2.1, SVG Export Plug-In . SVG Version: 6.00 Build 0)  -->
<svg version="1.1" id="Layer_1" xmlns="http://www.w3.org/2000/svg" xmlns:xlink="http://www.w3.org/1999/xlink" x="0px" y="0px"
	 viewBox="0 0 16 16" style="enable-background:new 0 0 16 16;" xml:space="preserve">
<path d="M0.5,15.6L1.1,12c0.2-1,0.6-1.9,1.3-2.6l8.9-8.9c0.7-0.7,2.2,0,3.2,1.1l0,0c1,1,1.8,2.5,1.1,3.2l-8.9,8.9
	C6,14.4,5.1,14.8,4.1,15L0.5,15.6z M12.1,1.2C12.1,1.2,12.1,1.2,12.1,1.2l-9,8.9c-0.6,0.6-0.9,1.3-1,2l-0.4,2.2L3.9,14
	c0.8-0.1,1.5-0.5,2-1L14.9,4c0-0.1-0.2-0.9-1.1-1.8C13,1.5,12.3,1.2,12.1,1.2z"/>
</svg>
