<?xml version="1.0" encoding="utf-8"?>
<!-- Generator: Adobe Illustrator 19.2.1, SVG Export Plug-In . SVG Version: 6.00 Build 0)  -->
<svg version="1.1" id="Layer_1" xmlns="http://www.w3.org/2000/svg" xmlns:xlink="http://www.w3.org/1999/xlink" x="0px" y="0px"
	 viewBox="0 0 48 48" style="enable-background:new 0 0 48 48;" xml:space="preserve">
<path d="M40,2c3.3,0,6,2.7,6,6v24c0,3.3-2.7,6-6,6H24h-0.5l-0.4,0.2l-9.9,4.9l1.3-2.1l1.8-3h-3.5H8c-3.3,0-6-2.7-6-6V8
	c0-3.3,2.7-6,6-6H40 M40,0H8C3.6,0,0,3.6,0,8v24c0,4.4,3.6,8,8,8h4.8L8,48l16-8h16c4.4,0,8-3.6,8-8V8C48,3.6,44.4,0,40,0L40,0z"/>
<path d="M12,10c1.1,0,2,0.9,2,2s-0.9,2-2,2s-2-0.9-2-2S10.9,10,12,10 M12,8c-2.2,0-4,1.8-4,4s1.8,4,4,4s4-1.8,4-4S14.2,8,12,8L12,8z
	"/>
<rect x="19" y="9" width="21" height="2"/>
<rect x="19" y="22" width="17" height="2"/>
<rect x="19" y="26" width="21" height="2"/>
<rect x="19" y="30" width="13" height="2"/>
<rect x="19" y="13" width="13" height="2"/>
</svg>
