<?xml version="1.0" encoding="utf-8"?>
<!-- Generator: Adobe Illustrator 19.2.1, SVG Export Plug-In . SVG Version: 6.00 Build 0)  -->
<svg version="1.1" id="Layer_1" xmlns="http://www.w3.org/2000/svg" xmlns:xlink="http://www.w3.org/1999/xlink" x="0px" y="0px"
	 viewBox="0 0 24 24" style="enable-background:new 0 0 24 24;" xml:space="preserve">
<path d="M12,0C5.4,0,0,5.4,0,12c0,6.6,5.4,12,12,12c6.6,0,12-5.4,12-12C24,5.4,18.6,0,12,0z M12,22C6.5,22,2,17.5,2,12
	C2,6.5,6.5,2,12,2s10,4.5,10,10C22,17.5,17.5,22,12,22z"/>
<path d="M17.3,8.3l-6.8,6.8l-3.8-3.8c-0.4-0.4-1-0.4-1.4,0s-0.4,1,0,1.4l4.5,4.5c0.2,0.2,0.5,0.3,0.7,0.3s0.5-0.1,0.7-0.3l7.5-7.5
	c0.4-0.4,0.4-1,0-1.4S17.7,7.9,17.3,8.3z"/>
</svg>
