<?xml version="1.0" encoding="utf-8"?>
<!-- Generator: Adobe Illustrator 19.2.1, SVG Export Plug-In . SVG Version: 6.00 Build 0)  -->
<svg version="1.1" id="Layer_1" xmlns="http://www.w3.org/2000/svg" xmlns:xlink="http://www.w3.org/1999/xlink" x="0px" y="0px"
	 viewBox="0 0 24 24" style="enable-background:new 0 0 24 24;" xml:space="preserve">
<polygon points="17,18 13,18 13,14 11,14 11,18 7,18 7,20 11,20 11,24 13,24 13,20 17,20 "/>
<path d="M5,16c0-3.9,3.1-7,7-7c3.9,0,7,3.1,7,7v4h2v-4c0-3.9-2.5-7.2-5.9-8.5C15.6,6.9,16,6,16,5c0-2.2-1.8-4-4-4C9.8,1,8,2.8,8,5
	c0,1,0.4,1.9,0.9,2.5C5.5,8.8,3,12.1,3,16v4h2V16z M12,3c1.1,0,2,0.9,2,2c0,1.1-0.9,2-2,2s-2-0.9-2-2C10,3.9,10.9,3,12,3z"/>
</svg>
