<?xml version="1.0" encoding="utf-8"?>
<!-- Generator: Adobe Illustrator 19.2.1, SVG Export Plug-In . SVG Version: 6.00 Build 0)  -->
<svg version="1.1" id="Layer_1" xmlns="http://www.w3.org/2000/svg" xmlns:xlink="http://www.w3.org/1999/xlink" x="0px" y="0px"
	 viewBox="0 0 16 16" style="enable-background:new 0 0 16 16;" xml:space="preserve">
<path d="M1,16c0.3,0,0.5-0.1,0.7-0.3l4.6-4.6c1,0.7,2.2,1.1,3.6,1.1c3.4,0,6.1-2.7,6.1-6.1S13.3,0,9.9,0S3.8,2.7,3.8,6.1
	c0,1.3,0.4,2.6,1.1,3.6l-4.6,4.6c-0.4,0.4-0.4,1,0,1.4C0.5,15.9,0.7,16,1,16z M9.9,2C12.1,2,14,3.9,14,6.1s-1.9,4.1-4.1,4.1
	S5.8,8.4,5.8,6.1S7.6,2,9.9,2z"/>
</svg>
