<?xml version="1.0" encoding="utf-8"?>
<!-- Generator: Adobe Illustrator 19.1.0, SVG Export Plug-In . SVG Version: 6.00 Build 0)  -->
<svg version="1.1" baseProfile="tiny" id="Слой_1"
	 xmlns="http://www.w3.org/2000/svg" xmlns:xlink="http://www.w3.org/1999/xlink" x="0px" y="0px" width="379.637px"
	 height="190.594px" viewBox="0 0 379.637 190.594" xml:space="preserve">
<g>
	<path d="M4.364,62.618C1.532,66.614,0,71.395,0,76.36c0,5.238,1.766,10.406,4.969,14.551c5.145,6.652,13.234,10.625,21.645,10.625
		h3.621c2.39,4.55,5.898,8.425,10.16,11.257H26.856c-3.977,0-7.199,3.223-7.199,7.2v28.8c0,3.977,3.222,7.2,7.199,7.2h12.265
		c-0.191,1.378-0.3,2.785-0.3,4.214c0,16.754,13.628,30.387,30.386,30.387c16.754,0,30.383-13.629,30.383-30.387
		c0-1.429-0.105-2.836-0.297-4.214h9.012c-0.191,1.378-0.297,2.785-0.297,4.214c0,16.754,13.629,30.387,30.383,30.387
		s30.387-13.629,30.387-30.387c0-1.429-0.106-2.836-0.301-4.214H290.75c-0.191,1.378-0.297,2.785-0.297,4.214
		c0,16.754,13.629,30.387,30.383,30.387c16.758,0,30.387-13.629,30.387-30.387c0-1.429-0.106-2.836-0.297-4.214h21.512
		c3.976,0,7.199-3.223,7.199-7.2V91.2c0-0.637-0.086-1.27-0.25-1.887l-22.801-84C355.735,2.176,352.887,0,349.637,0l-78,0
		c-3.977,0-7.199,3.223-7.199,7.2l0,105.593H212.09c4.262-2.832,7.77-6.707,10.156-11.257h7.149c6.379,0,12.515-2.332,17.281-6.571
		l3.141-2.789c2.976-2.644,5.304-5.82,6.933-9.441c1.629-3.645,2.453-7.496,2.453-11.465c0-5.402-1.55-10.656-4.488-15.191
		l-2.328-3.602c-3.492-5.395-9.113-9.125-15.43-10.242l-44.668-7.926L158.496,8.598c-4.031-3.066-9.043-4.758-14.109-4.758H62.215
		c-5.598,0-11.012,2.02-15.246,5.68L12.395,39.442c-5.106,4.418-8.031,10.82-8.031,17.57V62.618L4.364,62.618z M56.391,20.411
		c0.715-0.618,1.519-1.106,2.379-1.469l-3.844,14.953H40.809L56.391,20.411z M73.821,18.239h30.754l3.578,15.656h-38.36
		L73.821,18.239z M167.965,33.895h-45.039l-3.582-15.656h25.043c1.938,0,3.848,0.648,5.391,1.82L167.965,33.895z M211.313,87.465
		c0,8.813-7.172,15.985-15.985,15.985c-8.812,0-15.984-7.172-15.984-15.985c0-8.812,7.172-15.984,15.984-15.984
		C204.141,71.481,211.313,78.653,211.313,87.465L211.313,87.465z M362.403,81.715l-45.164-9.554V14.399h26.89L362.403,81.715z
		 M320.836,176.196c-8.812,0-15.984-7.172-15.984-15.985c0-8.816,7.172-15.988,15.984-15.988c8.817,0,15.989,7.172,15.989,15.988
		C336.825,169.024,329.653,176.196,320.836,176.196L320.836,176.196z M320.836,129.825c-9.742,0-18.422,4.613-23.988,11.769H278.84
		l-0.004-127.195h24.004l0,63.597c0,3.403,2.379,6.34,5.707,7.043l56.692,11.993v9.765h-12c-3.977,0-7.204,3.223-7.204,7.199
		c0,3.977,3.227,7.2,7.204,7.2h12v20.398h-20.411C339.262,134.438,330.582,129.825,320.836,129.825L320.836,129.825z
		 M138.391,176.196c-8.813,0-15.984-7.172-15.984-15.985c0-8.816,7.171-15.988,15.984-15.988c8.816,0,15.984,7.172,15.984,15.988
		C154.375,169.024,147.207,176.196,138.391,176.196L138.391,176.196z M69.203,176.196c-8.812,0-15.984-7.172-15.984-15.985
		c0-8.816,7.172-15.988,15.984-15.988c8.817,0,15.989,7.172,15.989,15.988C85.192,169.024,78.02,176.196,69.203,176.196
		L69.203,176.196z M34.055,127.192h230.387v14.402H162.379c-5.562-7.156-14.242-11.769-23.988-11.769
		c-9.742,0-18.422,4.613-23.988,11.769H93.196c-5.567-7.156-14.247-11.769-23.989-11.769c-9.746,0-18.425,4.613-23.992,11.769
		h-11.16V127.192z M73.914,112.793c4.262-2.832,7.77-6.707,10.161-11.257h84.335c2.387,4.55,5.895,8.425,10.157,11.257H73.914z
		 M73.141,87.465c0,8.813-7.172,15.985-15.984,15.985c-8.817,0-15.989-7.172-15.989-15.985c0-8.812,7.172-15.984,15.989-15.984
		C65.969,71.481,73.141,78.653,73.141,87.465L73.141,87.465z M16.36,82.098c-1.282-1.656-1.961-3.641-1.961-5.738
		c0-2.364,0.879-4.617,2.468-6.356c1.219-1.328,1.895-3.062,1.895-4.863v-8.129c0-2.566,1.113-5.004,3.055-6.683l2.351-2.032
		h164.516l45.762,8.117c2.398,0.426,4.527,1.84,5.851,3.883l2.328,3.602c0.035,0.055,0.067,0.113,0.102,0.172h-5.883
		c-3.977,0-7.203,3.222-7.203,7.199c0,3.976,3.226,7.199,7.203,7.199h5.875c-0.68,1.086-1.496,2.078-2.473,2.942L237.11,84.2
		c-2.129,1.894-4.871,2.933-7.715,2.933h-3.692c-0.175-16.601-13.734-30.054-30.375-30.054c-16.644,0-30.199,13.453-30.379,30.054
		H87.532c-0.18-16.601-13.735-30.054-30.379-30.054c-16.645,0-30.2,13.453-30.375,30.054H26.61
		C22.629,87.133,18.797,85.254,16.36,82.098L16.36,82.098z M16.36,82.098"/>
</g>
</svg>
