<?xml version="1.0" encoding="utf-8"?>
<!-- Generator: Adobe Illustrator 19.1.0, SVG Export Plug-In . SVG Version: 6.00 Build 0)  -->
<svg version="1.1" baseProfile="tiny" id="Слой_1"
	 xmlns="http://www.w3.org/2000/svg" xmlns:xlink="http://www.w3.org/1999/xlink" x="0px" y="0px" width="981.413px"
	 height="456.034px" viewBox="59.905 -119.213 981.413 456.034" xml:space="preserve">
<path d="M365.187,336.821c-44.015,0-79.824-35.809-79.824-79.824s35.809-79.824,79.824-79.824s79.824,35.809,79.824,79.824
	S409.202,336.821,365.187,336.821z M365.187,195.173c-34.09,0-61.824,27.734-61.824,61.824s27.734,61.824,61.824,61.824
	s61.824-27.734,61.824-61.824S399.277,195.173,365.187,195.173z M192.227,336.821c-44.015,0-79.824-35.809-79.824-79.824
	s35.809-79.824,79.824-79.824s79.824,35.809,79.824,79.824S236.242,336.821,192.227,336.821z M192.227,195.173
	c-34.09,0-61.824,27.734-61.824,61.824s27.734,61.824,61.824,61.824s61.824-27.734,61.824-61.824S226.317,195.173,192.227,195.173z
	 M947.683,319.741c-36.515,0-66.222-29.708-66.222-66.223s29.707-66.222,66.222-66.222s66.223,29.707,66.224,66.222
	C1013.906,290.033,984.198,319.741,947.683,319.741z M947.683,205.296c-26.59,0-48.222,21.632-48.222,48.222
	s21.632,48.223,48.222,48.223c26.591,0,48.224-21.633,48.224-48.223C995.905,226.928,974.272,205.296,947.683,205.296z
	 M365.187,308.609c-28.459,0-51.613-23.153-51.613-51.612c0-28.459,23.153-51.613,51.613-51.613s51.613,23.153,51.613,51.613
	C416.8,285.456,393.646,308.609,365.187,308.609z M365.187,223.384c-18.534,0-33.613,15.079-33.613,33.613
	s15.079,33.612,33.613,33.612S398.8,275.53,398.8,256.997C398.8,238.463,383.721,223.384,365.187,223.384z M192.227,308.609
	c-28.459,0-51.613-23.153-51.613-51.612c0-28.459,23.154-51.613,51.613-51.613s51.613,23.153,51.613,51.613
	C243.84,285.456,220.687,308.609,192.227,308.609z M192.227,223.384c-18.534,0-33.613,15.079-33.613,33.613
	s15.079,33.612,33.613,33.612s33.613-15.079,33.613-33.612C225.84,238.463,210.761,223.384,192.227,223.384z M947.683,294.283
	c-22.478,0-40.764-18.287-40.764-40.765c0-22.477,18.286-40.764,40.764-40.764c22.477,0,40.764,18.286,40.765,40.763
	C988.447,275.996,970.16,294.283,947.683,294.283z M947.683,230.754c-12.552,0-22.764,10.212-22.764,22.764
	c0,12.553,10.212,22.765,22.764,22.765c12.553,0,22.765-10.212,22.765-22.765C970.446,240.966,960.234,230.754,947.683,230.754z
	 M597.183,273.733l-0.264-0.015c-13.792-0.788-25.013-12.414-25.013-25.916v-12.014H449.789l-1.655-6.9
	c-0.061-0.247-6.531-26.218-22.69-39.052l-20.205-16.047h193.55c0.081,0,0.161-0.001,0.242-0.001h12.874V-24.56
	c0-10.656,8.551-17.598,18-19.264v-75.389h20v75h0.315c3.491,0,6.603,0.73,9.236,2.088c4.6-4.829,10.751-8.366,17.693-9.734
	l0.75-0.148l0.764-0.019c62.755-1.591,119.127,11.192,121.496,11.737l0.166,0.04c7.147,1.787,16.564,9.03,32.221,49.2
	c5.525,14.176,10.077,27.957,12.481,35.516c12.662,1.01,43.156,3.645,75.138,7.911c86.645,11.559,99.907,23.76,104.266,27.77
	l2.556,2.352l5.134,56.538c1.992,2.62,5.259,6.961,6.749,9.196c1.694,2.54,3.617,5.421,1.551,53.937l-0.367,8.617h-35.77
	l-2.172-5.883c-0.102-0.268-11.191-29.117-33.307-29.117h-48.614l-0.449-0.098c-1.115-0.096-9.825-0.528-19.932,8.463
	c-10.721,9.537-24.786,31.399-30.918,81.393l-0.973,7.931l-32.413-0.11L597.183,273.733z M589.906,199.095v48.707
	c0,3.99,3.561,7.575,7.823,7.93l237.794-0.365l16.569,0.056c6.349-43.317,19.646-72.852,39.571-87.848
	c13.893-10.455,26.364-10.146,29.952-9.787h47.189c26.947,0,41.94,23.651,47.582,35h6.378c0.521-15.312,0.722-30.94,0.237-35.849
	c-1.936-2.712-5.379-7.237-6.746-9.016l-1.591-2.07l-4.932-54.303c-7.304-4.527-28.824-12.909-91.949-21.329
	c-41.161-5.491-79.781-8.241-80.166-8.269l-6.197-0.436l-1.79-5.95c-0.056-0.185-5.658-18.752-13.081-38.075
	c-12.916-33.621-19.793-39.555-20.923-40.348c-5.685-1.251-58.611-12.517-115.65-11.194c-5.445,1.362-11.071,6.351-11.071,12.475
	l-0.001,213.365H599.03C594.724,191.788,589.906,194.913,589.906,199.095L589.906,199.095z M463.588,217.788h108.318v-18.693
	c0-2.539,0.403-4.993,1.152-7.307H451.055C457.436,201.348,461.425,211.349,463.588,217.788z M629.905,173.787h21V-24.56
	c0-0.785-0.075-1.308-0.147-1.628c-0.14-0.014-0.317-0.024-0.537-0.024h-15.903c-2.412,0-4.193,1.167-4.423,1.665L629.905,173.787z
	 M108.037,235.789H78.163c-8.048,0-18.258-7.934-18.258-16.852v-31.73c0-6.679,5.646-13.418,18.258-13.418h38.767
	c8.555,0,14.847,3.535,16.832,9.457c1.652,4.93-0.135,10.117-4.664,13.538l0,0c-12.941,9.776-19.5,26.901-21.062,31.436v7.569
	H108.037z M78.718,217.789h14.015c1.855-4.464,3.993-8.676,4.031-8.749c3.403-6.564,7.26-12.33,11.532-17.251H78.163
	c-0.087,0-0.173,0.001-0.258,0.003v25.442C78.167,217.453,78.473,217.664,78.718,217.789z M782.922,174.788h-79.521
	c-11.774,0-22.497-10.208-22.497-21.418V-1.697c0-11.344,9.944-20.928,21.715-20.928l0.532,0.016l66.904,3.962
	c14.132,0.178,19.994,12.955,21.93,17.173l0.329,0.718l10.589,40.65V153.37C802.903,165.38,794.126,174.788,782.922,174.788z
	 M698.904,71.788v81.582c0,1.159,2.428,3.418,4.497,3.418h79.521c1.352,0,1.981-2.04,1.981-3.418V71.788H698.904z M698.904,53.788
	h85.999v-11.59l-9.6-36.849c-2.872-5.998-4.602-5.998-5.546-5.998l-0.532-0.016L702.437-4.62c-1.844,0.099-3.533,1.685-3.533,2.923
	V53.788z"/>
</svg>
