<?xml version="1.0" encoding="iso-8859-1"?>
<!-- Generator: Adobe Illustrator 17.1.0, SVG Export Plug-In . SVG Version: 6.00 Build 0)  -->
<!DOCTYPE svg PUBLIC "-//W3C//DTD SVG 1.1//EN" "http://www.w3.org/Graphics/SVG/1.1/DTD/svg11.dtd">
<svg version="1.1" id="Capa_1" xmlns="http://www.w3.org/2000/svg" xmlns:xlink="http://www.w3.org/1999/xlink" x="0px" y="0px"
	 viewBox="0 0 511 511" style="enable-background:new 0 0 511 511;" xml:space="preserve">
<g>
	<path d="M511,187.5c0-10.752-8.748-19.5-19.5-19.5H115.212c-4.348-4.913-10.674-8-17.589-8H63.5c-4.142,0-7.5,3.358-7.5,7.5V192
		H15.5C6.953,192,0,198.953,0,207.5v16c0,8.547,6.953,15.5,15.5,15.5H40v16.5c0,4.142,3.358,7.5,7.5,7.5H72v9H15.5
		C6.953,272,0,278.953,0,287.5v9.441c0,7.363,5.24,13.755,12.46,15.199l27.598,5.52C40.023,318.27,40,318.882,40,319.5
		c0,17.369,14.131,31.5,31.5,31.5c14.785,0,27.216-10.241,30.591-24h10.819c3.374,13.759,15.806,24,30.591,24
		c14.832,0,27.294-10.307,30.621-24.132c0.448,0.083,0.907,0.132,1.379,0.132h161.409c3.374,13.759,15.806,24,30.591,24
		s27.216-10.241,30.591-24h20.748c5.571,0,10.738-3.011,13.485-7.858l63.886-112.741C504.69,204.286,511,196.626,511,187.5z
		 M496,187.5c0,2.481-2.019,4.5-4.5,4.5H122.576l-1.286-9H491.5C493.981,183,496,185.019,496,187.5z M126.5,216h-0.495l-1.286-9
		h66.388L135,228.58v-4.08C135,219.813,131.187,216,126.5,216z M71,175h26.623c4.203,0,7.82,3.138,8.415,7.298L110.852,216H71V175z
		 M15,223.5v-16c0-0.275,0.224-0.5,0.5-0.5H56v9h-7.5c-4.518,0-8.214,3.546-8.475,8H15.5C15.224,224,15,223.775,15,223.5z M55,231
		h64.469c0.007,0,0.014,0.001,0.021,0.001c0.005,0,0.009-0.001,0.014-0.001H120v17H55V231z M87,263h17v9H87V263z M71.5,336
		c-9.098,0-16.5-7.402-16.5-16.5S62.402,303,71.5,303S88,310.402,88,319.5S80.598,336,71.5,336z M143.5,336
		c-9.098,0-16.5-7.402-16.5-16.5s7.402-16.5,16.5-16.5s16.5,7.402,16.5,16.5S152.598,336,143.5,336z M174.121,312.132
		C170.794,298.307,158.332,288,143.5,288c-14.785,0-27.216,10.241-30.591,24h-10.819c-3.374-13.759-15.806-24-30.591-24
		c-11.43,0-21.457,6.121-26.978,15.256l-29.12-5.824c-0.233-0.046-0.402-0.253-0.402-0.49V287.5c0-0.275,0.224-0.5,0.5-0.5h240
		c4.687,0,8.5,3.813,8.5,8.5V312h-88.5C175.028,312,174.569,312.049,174.121,312.132z M278.987,295H288v17h-9v-16.5
		C279,295.333,278.991,295.167,278.987,295z M408.025,312h-9.935c-3.374-13.759-15.806-24-30.591-24s-27.216,10.241-30.591,24H303
		v-41h56.476c0.009,0,0.017,0.002,0.026,0.002c0.014,0,0.028-0.002,0.042-0.002H399.5c4.687,0,8.5,3.813,8.5,8.5v32
		C408,311.669,408.014,311.834,408.025,312z M338.422,231l10,25H303v-16.5c0-4.687,3.813-8.5,8.5-8.5H338.422z M367.5,336
		c-9.098,0-16.5-7.402-16.5-16.5s7.402-16.5,16.5-16.5s16.5,7.402,16.5,16.5S376.598,336,367.5,336z M423,305.169V279.5
		c0-12.958-10.542-23.5-23.5-23.5h-34.922l-10.226-25.564c2.727-1.123,4.648-3.804,4.648-6.936c0-4.142-3.358-7.5-7.5-7.5h-7.847
		c-0.01,0-0.02,0-0.03,0H311.5c-12.958,0-23.5,10.542-23.5,23.5V280h-14.859c-4.31-4.899-10.619-8-17.641-8H119v-9h7.5
		c4.687,0,8.5-3.813,8.5-8.5v-9.849L232.892,207h245.737L423,305.169z"/>
	<path d="M71.5,312c-1.97,0-3.91,0.8-5.3,2.2c-1.4,1.39-2.2,3.33-2.2,5.3s0.8,3.91,2.2,5.3c1.39,1.4,3.33,2.2,5.3,2.2
		c1.97,0,3.91-0.8,5.3-2.2c1.4-1.39,2.2-3.33,2.2-5.3s-0.8-3.91-2.2-5.3C75.41,312.8,73.47,312,71.5,312z"/>
	<path d="M143.5,312c-1.97,0-3.91,0.8-5.3,2.2c-1.4,1.39-2.2,3.33-2.2,5.3s0.8,3.91,2.2,5.3c1.39,1.4,3.33,2.2,5.3,2.2
		c1.98,0,3.91-0.8,5.3-2.2c1.4-1.39,2.2-3.33,2.2-5.3s-0.8-3.91-2.2-5.3C147.41,312.8,145.48,312,143.5,312z"/>
	<path d="M367.5,312c-1.97,0-3.91,0.8-5.3,2.2c-1.4,1.39-2.2,3.33-2.2,5.3s0.8,3.91,2.2,5.3c1.39,1.4,3.33,2.2,5.3,2.2
		c1.97,0,3.91-0.8,5.3-2.2c1.4-1.39,2.2-3.33,2.2-5.3s-0.8-3.91-2.2-5.3C371.41,312.8,369.47,312,367.5,312z"/>
</g>
<g>
</g>
<g>
</g>
<g>
</g>
<g>
</g>
<g>
</g>
<g>
</g>
<g>
</g>
<g>
</g>
<g>
</g>
<g>
</g>
<g>
</g>
<g>
</g>
<g>
</g>
<g>
</g>
<g>
</g>
</svg>
