<?xml version="1.0" encoding="utf-8"?>
<!-- Generator: Adobe Illustrator 19.1.0, SVG Export Plug-In . SVG Version: 6.00 Build 0)  -->
<svg version="1.1" baseProfile="tiny" id="Layer_1" xmlns="http://www.w3.org/2000/svg" xmlns:xlink="http://www.w3.org/1999/xlink"
	 x="0px" y="0px" width="216.2px" height="81.8px" viewBox="-331 236 216.2 81.8" xml:space="preserve">
<path d="M-270.9,289c-8,0-14.4,6.4-14.4,14.4s6.4,14.4,14.4,14.4s14.4-6.4,14.4-14.4S-262.9,289-270.9,289z M-270.9,312.4
	c-5,0-9-4-9-9s4-9,9-9s9,4,9,9C-261.9,308.3-265.9,312.4-270.9,312.4z"/>
<path d="M-303.3,289c-8,0-14.4,6.4-14.4,14.4s6.4,14.4,14.4,14.4s14.4-6.4,14.4-14.4S-295.3,289-303.3,289z M-303.3,312.4
	c-5,0-9-4-9-9s4-9,9-9s9,4,9,9C-294.3,308.3-298.3,312.4-303.3,312.4z"/>
<path d="M-309.3,286h-16.2c-3,0-5.5,3-5.5,6v2.1c0,3,2.5,4.9,5.5,4.9h4.8C-319.3,293-314.9,288-309.3,286z"/>
<path d="M-276.8,286h-20.6c4.5,2,8.2,4.9,10.3,9.2C-285,290.9-281.3,288-276.8,286z"/>
<path d="M-135.3,278.5l-5.1,5l4.7,4.5h-7.3v-23c0,0-0.2-5-2-8.1c-1.9-3.3-6.5-10.9-9.5-14.2c-2-2.2-6.9-3.7-9.9-3.7h-11.4
	c-3,0-5.2,3.5-5.2,6.5V286h-83.9c5.6,2,10,7,11.5,13h71.3c2-8,9-13.6,17.4-13.6c8.5,0,15.5,5.9,17.5,13.7c0.4,0.1,0.8-0.1,1.2-0.1
	h21.1l5,5l5.1-5.1L-135.3,278.5z M-149,272h-27v-25h16.3l10.7,16.2V272z M-143,295c0.1,0,0-0.5,0-0.9v-1.5V292h10.9l3.6,3H-143z"/>
<path d="M-164.7,289c-8,0-14.4,6.4-14.4,14.4s6.4,14.4,14.4,14.4s14.4-6.4,14.4-14.4S-156.7,289-164.7,289z M-164.7,312.4
	c-5,0-9-4-9-9s4-9,9-9s9,4,9,9C-155.7,308.3-159.7,312.4-164.7,312.4z"/>
<path d="M-203.7,307.6c0-3.1,2.1-5.5,4.9-6.3c-0.6-0.3-1.3-0.3-2-0.3H-235c-3,0-5.9,2.2-5.9,5.2v1.8c0,3,3,5,5.9,5h34.2
	c0.2,0,0.3,0.2,0.5,0.2C-202.3,312-203.7,310.1-203.7,307.6z"/>
<path d="M-197,302.7h-0.1l0,0c-2.7,0-4.7,2.2-4.7,4.9c0,2.4,1.4,4.4,3.8,4.8c0,0,0,0,0.1,0c0.3,0.1,0.7,0.1,1.1,0.1
	c2.7,0,4.9-2.2,4.9-4.9C-192.1,304.9-194.3,302.7-197,302.7z"/>
<path d="M-208.1,239h12.6c2,0,3.5,2.2,3.5,4.2V283h4v-39.8c0-4-3.5-7.2-7.5-7.2h-12.6c-3.4,0-6.1,2-6.9,5h3.8
	C-210.5,240-209.4,239-208.1,239z"/>
<path d="M-203.2,245h-120.6c-4,0-7.2,3.2-7.2,7.2v23.6c0,4,3.2,7.2,7.2,7.2h120.6c4,0,7.2-3.2,7.2-7.2v-23.6
	C-196,248.2-199.2,245-203.2,245z M-200,275.8c0,1.794-1.405,3.2-3.2,3.2h-120.6c-1.794,0-3.2-1.406-3.2-3.2v-23.6
	c0-1.794,1.406-3.2,3.2-3.2h120.6c1.795,0,3.2,1.406,3.2,3.2V275.8z"/>
</svg>
