<?xml version="1.0" ?><!DOCTYPE svg  PUBLIC '-//W3C//DTD SVG 1.1//EN'  'http://www.w3.org/Graphics/SVG/1.1/DTD/svg11.dtd'><svg height="60px" id="Layer_1" style="enable-background:new 0 0 60 60;" version="1.1" viewBox="0 0 60 60" width="60px" xml:space="preserve" xmlns="http://www.w3.org/2000/svg" xmlns:xlink="http://www.w3.org/1999/xlink"><style type="text/css">
<![CDATA[
	.st0{fill:#231F20;}
]]>
</style><g><g><g><g><path class="st0" d="M6.896,35.193c-0.254,0-0.502-0.129-0.643-0.363c-0.213-0.355-0.099-0.816,0.255-1.03L54.569,4.847      c0.354-0.213,0.815-0.1,1.03,0.255c0.213,0.355,0.099,0.816-0.255,1.03L7.283,35.085C7.162,35.158,7.028,35.193,6.896,35.193z"/></g></g><g><g><path class="st0" d="M27.031,39.442c-0.782,0-1.518-0.305-2.072-0.858s-0.859-1.29-0.859-2.073c0-0.784,0.305-1.52,0.859-2.072      L54.283,5.115c1.111-1.109,3.037-1.106,4.144,0c0.555,0.557,0.86,1.293,0.86,2.074c0,0.782-0.305,1.517-0.86,2.07L29.104,38.583      C28.549,39.138,27.813,39.442,27.031,39.442z M56.354,5.757c-0.381,0-0.741,0.149-1.012,0.419L26.019,35.5      c-0.271,0.27-0.419,0.629-0.419,1.011s0.149,0.742,0.419,1.012c0.542,0.541,1.481,0.542,2.024,0L57.366,8.198      c0.271-0.271,0.42-0.628,0.42-1.009c0-0.381-0.149-0.742-0.421-1.014C57.096,5.906,56.736,5.757,56.354,5.757z"/></g></g><g><path class="st0" d="M24.953,48.543c-0.228,0-0.453-0.103-0.6-0.299l-1.454-1.934c-0.249-0.331-0.182-0.801,0.149-1.05     c0.332-0.248,0.802-0.182,1.05,0.149l1.454,1.934c0.249,0.331,0.182,0.801-0.149,1.05C25.268,48.495,25.11,48.543,24.953,48.543z     "/></g><g><path class="st0" d="M13.213,48.543c-0.157,0-0.315-0.049-0.45-0.15c-0.331-0.249-0.398-0.719-0.149-1.05l1.454-1.934     c0.25-0.331,0.719-0.397,1.05-0.149c0.331,0.249,0.398,0.719,0.149,1.05l-1.454,1.934C13.666,48.44,13.441,48.543,13.213,48.543z     "/></g><g><g><path class="st0" d="M38.497,55.743H6.431c-2.007,0-3.639-1.633-3.639-3.64v-1.432c0-2.007,1.632-3.64,3.639-3.64h32.065      c2.007,0,3.64,1.633,3.64,3.64v1.432C42.136,54.11,40.503,55.743,38.497,55.743z M6.431,48.531c-1.18,0-2.139,0.96-2.139,2.14      v1.432c0,1.18,0.959,2.14,2.139,2.14h32.065c1.18,0,2.14-0.96,2.14-2.14v-1.432c0-1.18-0.96-2.14-2.14-2.14H6.431z"/></g><g><g><path class="st0" d="M7.827,54.494c-1.712,0-3.106-1.394-3.106-3.106s1.394-3.106,3.106-3.106s3.105,1.394,3.105,3.106       S9.54,54.494,7.827,54.494z M7.827,49.782c-0.886,0-1.606,0.72-1.606,1.606s0.72,1.606,1.606,1.606       c0.885,0,1.605-0.72,1.605-1.606S8.712,49.782,7.827,49.782z"/></g><g><path class="st0" d="M13.684,54.494c-1.713,0-3.107-1.394-3.107-3.106s1.394-3.106,3.107-3.106       c1.712,0,3.105,1.394,3.105,3.106S15.396,54.494,13.684,54.494z M13.684,49.782c-0.886,0-1.607,0.72-1.607,1.606       s0.721,1.606,1.607,1.606c0.885,0,1.605-0.72,1.605-1.606S14.569,49.782,13.684,49.782z"/></g><g><path class="st0" d="M19.589,54.494c-1.712,0-3.106-1.394-3.106-3.106s1.394-3.106,3.106-3.106       c1.713,0,3.106,1.394,3.106,3.106S21.302,54.494,19.589,54.494z M19.589,49.782c-0.886,0-1.606,0.72-1.606,1.606       s0.72,1.606,1.606,1.606s1.606-0.72,1.606-1.606S20.475,49.782,19.589,49.782z"/></g><g><g><path class="st0" d="M25.45,54.494c-1.712,0-3.106-1.394-3.106-3.106s1.394-3.106,3.106-3.106s3.105,1.394,3.105,3.106        S27.162,54.494,25.45,54.494z M25.45,49.782c-0.886,0-1.606,0.72-1.606,1.606s0.72,1.606,1.606,1.606        c0.885,0,1.605-0.72,1.605-1.606S26.335,49.782,25.45,49.782z"/></g><g><path class="st0" d="M31.306,54.494c-1.713,0-3.106-1.394-3.106-3.106s1.394-3.106,3.106-3.106        c1.712,0,3.106,1.394,3.106,3.106S33.019,54.494,31.306,54.494z M31.306,49.782c-0.886,0-1.606,0.72-1.606,1.606        s0.721,1.606,1.606,1.606s1.606-0.72,1.606-1.606S32.192,49.782,31.306,49.782z"/></g><g><path class="st0" d="M37.212,54.494c-1.712,0-3.106-1.394-3.106-3.106s1.394-3.106,3.106-3.106s3.106,1.394,3.106,3.106        S38.924,54.494,37.212,54.494z M37.212,49.782c-0.886,0-1.606,0.72-1.606,1.606s0.72,1.606,1.606,1.606        s1.606-0.72,1.606-1.606S38.098,49.782,37.212,49.782z"/></g></g></g></g><g><path class="st0" d="M31.287,46.625H3.972c-1.932,0-3.504-1.572-3.504-3.504v-2.374c0-0.47,0.098-0.935,0.285-1.37     c-0.327-0.495-0.502-1.073-0.502-1.673v-2.16c0-1.546,0.838-1.857,2.191-1.857h4.132c1.685,0,3.055,1.371,3.055,3.056v0.5h11.646     c0.737-1.966,2.544-3.36,4.657-3.537c0.415-0.03,0.775,0.272,0.81,0.685c0.034,0.413-0.272,0.775-0.685,0.81     c-1.675,0.14-3.084,1.336-3.507,2.979c-0.085,0.332-0.384,0.563-0.726,0.563H8.85c-0.215,0-0.419-0.092-0.562-0.253     c-0.143-0.161-0.209-0.375-0.183-0.588c0.016-0.118,0.023-0.157,0.023-0.198v-0.96c0-0.858-0.698-1.556-1.555-1.556H2.441     c-0.406,0-0.594,0.031-0.676,0.053c-0.008,0.051-0.016,0.143-0.016,0.304v2.16c0,0.398,0.154,0.778,0.433,1.07     c0.237,0.248,0.276,0.625,0.094,0.916c-0.203,0.325-0.31,0.69-0.31,1.058v2.374c0,1.105,0.899,2.004,2.004,2.004h27.315     c1.105,0,2.004-0.899,2.004-2.004V39.17c0-1.491-0.743-2.787-1.988-3.465c-0.364-0.198-0.498-0.654-0.3-1.018     c0.198-0.365,0.655-0.498,1.018-0.3c1.734,0.946,2.77,2.733,2.77,4.783v3.951C34.792,45.053,33.219,46.625,31.287,46.625z"/></g></g><g><path class="st0" d="M28.169,37.899c-0.404,0-0.737-0.321-0.749-0.728l-0.092-3.146c-0.006-0.206,0.073-0.405,0.218-0.551    c0.145-0.146,0.333-0.219,0.549-0.221l2.366,0.055l-0.07-2.357c-0.006-0.206,0.072-0.404,0.217-0.55    c0.145-0.146,0.349-0.232,0.549-0.222l2.36,0.051l-0.072-2.357c-0.006-0.206,0.072-0.405,0.217-0.551    c0.145-0.146,0.332-0.233,0.55-0.222l2.367,0.055l-0.071-2.356c-0.007-0.216,0.081-0.424,0.239-0.572    c0.133-0.124,0.305-0.194,0.484-0.2c0.02-0.001,0.039-0.002,0.062-0.001l2.358,0.049l-0.07-2.359    c-0.006-0.206,0.072-0.405,0.218-0.551c0.145-0.146,0.351-0.217,0.55-0.221L42.712,21l-0.071-2.357    c-0.006-0.208,0.074-0.409,0.221-0.555c0.052-0.052,0.112-0.096,0.175-0.13c0.121-0.074,0.249-0.12,0.402-0.112l2.357,0.07    l-0.057-2.365c-0.005-0.206,0.075-0.405,0.221-0.55c0.146-0.146,0.341-0.236,0.551-0.218l2.361,0.069l-0.049-2.356    c-0.004-0.206,0.076-0.414,0.222-0.559c0.146-0.145,0.344-0.244,0.551-0.227l2.356,0.071l-0.056-2.365    C51.89,9.21,51.97,9.012,52.116,8.867c0.146-0.146,0.337-0.241,0.551-0.218l2.359,0.069l-0.052-2.359    c-0.009-0.415,0.319-0.757,0.733-0.767c0.432-0.001,0.757,0.32,0.767,0.733l0.069,3.148c0.004,0.206-0.076,0.404-0.222,0.549    c-0.146,0.145-0.354,0.229-0.55,0.217l-2.358-0.069l0.056,2.366c0.005,0.206-0.075,0.404-0.221,0.55    c-0.146,0.145-0.344,0.228-0.551,0.217l-2.359-0.071l0.049,2.376c0.004,0.205-0.076,0.403-0.222,0.548    c-0.146,0.144-0.345,0.225-0.55,0.217l-2.358-0.069l0.057,2.366c0.005,0.206-0.075,0.405-0.221,0.55s-0.355,0.233-0.551,0.218    l-2.379-0.071l0.072,2.378c0.006,0.206-0.072,0.405-0.217,0.552c-0.146,0.146-0.346,0.218-0.55,0.221l-2.366-0.057l0.07,2.356    c0.006,0.206-0.072,0.404-0.217,0.55s-0.343,0.215-0.548,0.222l-2.377-0.049l0.071,2.36c0.006,0.206-0.072,0.405-0.217,0.551    c-0.146,0.146-0.344,0.213-0.55,0.222l-2.366-0.055l0.071,2.355c0.006,0.206-0.072,0.405-0.217,0.551s-0.343,0.211-0.549,0.222    l-2.36-0.051l0.07,2.358c0.006,0.206-0.072,0.405-0.217,0.551c-0.146,0.146-0.342,0.21-0.55,0.222l-2.366-0.055l0.069,2.356    c0.012,0.414-0.313,0.759-0.728,0.771C28.184,37.899,28.176,37.899,28.169,37.899z"/></g><g><g><path class="st0" d="M56.422,28.731c-0.414,0-0.75-0.336-0.75-0.75V10.215c0-0.414,0.336-0.75,0.75-0.75s0.75,0.336,0.75,0.75     v17.766C57.172,28.396,56.836,28.731,56.422,28.731z"/></g></g><g><g><g><g><g><g><path class="st0" d="M56.418,32.562c-1.467,0-2.661-1.194-2.661-2.661s1.193-2.661,2.661-2.661         c1.466,0,2.658,1.193,2.658,2.661S57.884,32.562,56.418,32.562z M56.418,28.74c-0.64,0-1.161,0.521-1.161,1.161         s0.521,1.161,1.161,1.161c0.639,0,1.158-0.521,1.158-1.161S57.057,28.74,56.418,28.74z"/></g></g></g></g></g><g><path class="st0" d="M56.767,39.238c-0.465,0-0.928-0.102-1.355-0.307c-0.76-0.363-1.306-1.001-1.498-1.75     c-0.214-0.826-0.119-1.604,0.274-2.249c0.701-1.151,2.076-1.491,2.231-1.526c0.405-0.091,0.806,0.163,0.897,0.566     c0.091,0.403-0.161,0.804-0.563,0.896c-0.253,0.061-0.975,0.33-1.288,0.85c-0.179,0.298-0.212,0.654-0.099,1.089     c0.082,0.319,0.333,0.599,0.692,0.77c0.444,0.212,0.963,0.212,1.422,0.003c0.387-0.176,0.677-0.526,0.796-0.96     c0.11-0.4,0.524-0.634,0.922-0.524c0.399,0.11,0.634,0.522,0.524,0.922c-0.237,0.864-0.828,1.566-1.62,1.927     C57.676,39.141,57.221,39.238,56.767,39.238z"/></g></g><g><path class="st0" d="M56.585,34.889c-0.414,0-0.75-0.336-0.75-0.75V31.81c0-0.414,0.336-0.75,0.75-0.75s0.75,0.336,0.75,0.75    v2.329C57.335,34.553,56.999,34.889,56.585,34.889z"/></g></g></svg>