<?xml version="1.0" encoding="iso-8859-1"?>
<!-- Generator: Adobe Illustrator 17.1.0, SVG Export Plug-In . SVG Version: 6.00 Build 0)  -->
<!DOCTYPE svg PUBLIC "-//W3C//DTD SVG 1.1//EN" "http://www.w3.org/Graphics/SVG/1.1/DTD/svg11.dtd">
<svg version="1.1" id="Capa_1" xmlns="http://www.w3.org/2000/svg" xmlns:xlink="http://www.w3.org/1999/xlink" x="0px" y="0px"
	 viewBox="0 0 511 511" style="enable-background:new 0 0 511 511;" xml:space="preserve">
<g>
	<path d="M247.5,318.629c-4.142,0-7.5,3.358-7.5,7.5c0,4.687-3.813,8.5-8.5,8.5s-8.5-3.813-8.5-8.5s3.813-8.5,8.5-8.5
		c4.142,0,7.5-3.358,7.5-7.5s-3.358-7.5-7.5-7.5c-12.958,0-23.5,10.542-23.5,23.5s10.542,23.5,23.5,23.5s23.5-10.542,23.5-23.5
		C255,321.987,251.642,318.629,247.5,318.629z"/>
	<path d="M383.5,334.629c-1.97,0-3.91,0.8-5.3,2.2c-1.4,1.39-2.2,3.33-2.2,5.3c0,1.97,0.8,3.91,2.2,5.3c1.39,1.4,3.33,2.2,5.3,2.2
		c1.97,0,3.91-0.8,5.3-2.2c1.4-1.39,2.2-3.33,2.2-5.3c0-1.98-0.8-3.91-2.2-5.3C387.41,335.429,385.47,334.629,383.5,334.629z"/>
	<path d="M503.5,366.629h-1.495l-6.099-42.693c-1.084-7.586-7.681-13.307-15.344-13.307H479.5c-13.301,0-24.695,8.291-29.306,19.973
		l-43.949-24.416l-3.785-15.141c-2.937-11.748-12.507-20.873-24.382-23.248L351,262.381v-41.624c0-2.271,0.884-4.405,2.49-6.011
		l11.313-11.313c2.929-2.929,2.929-7.678,0-10.606c-2.929-2.929-7.678-2.929-10.606,0l-11.313,11.313
		c-4.439,4.438-6.883,10.34-6.883,16.617v38.624l-18.375-3.675l-12.561-50.242c3.391-0.72,5.936-3.729,5.936-7.334
		c0-4.142-3.358-7.5-7.5-7.5h-82.813c-11.223,0-20.924,7.996-23.067,19.013l-18.089,92.987h-14.303l-22.493-82.473
		c-0.239-0.877-0.636-1.703-1.17-2.438l-58.978-81.095c-5.075-6.978-14.361-9.242-22.082-5.383
		c-4.742,2.372-7.962,6.678-9.167,11.524c-0.082,0.257-0.152,0.52-0.207,0.79L16.606,314.381C6.729,319.704,0,330.145,0,342.129
		c0,17.369,14.131,31.5,31.5,31.5h23.859c0.044,0.001,0.088,0.001,0.132,0.001c0.043,0,0.087,0,0.131-0.001H71.5
		c4.142,0,7.5-3.358,7.5-7.5s-3.358-7.5-7.5-7.5h-9.646l-5.841-35.049c-1.251-7.504-7.681-12.951-15.289-12.951H35.28l43.203-92.512
		l42.076,102.852c0.004,0.009,0.009,0.017,0.013,0.026c-0.37,1.654-0.572,3.37-0.572,5.134v8c0,12.958,10.542,23.5,23.5,23.5h8.5v9
		h-8.5c-4.142,0-7.5,3.358-7.5,7.5s3.358,7.5,7.5,7.5h32c4.142,0,7.5-3.358,7.5-7.5s-3.358-7.5-7.5-7.5H167v-9h16.5
		c0.737,0,1.448-0.111,2.121-0.309c10,14.662,26.833,24.309,45.879,24.309s35.88-9.647,45.879-24.309
		c0.673,0.198,1.383,0.309,2.121,0.309h40c12.958,0,23.5-10.542,23.5-23.5v-0.5h1.931c-0.604,2.74-0.931,5.582-0.931,8.5
		c0,21.78,17.72,39.5,39.5,39.5s39.5-17.72,39.5-39.5c0-3.536-0.474-6.962-1.35-10.226L448,346.542v3.587
		c0,17.369,14.131,31.5,31.5,31.5h15.871c0.04,0,0.08,0.001,0.12,0.001c0.04,0,0.08,0,0.12-0.001h7.89c4.142,0,7.5-3.358,7.5-7.5
		S507.642,366.629,503.5,366.629z M387.908,294.683l0.382,1.528l-31.148-17.304l17.994,3.599
		C381.356,283.749,386.369,288.529,387.908,294.683z M212.344,212.506c0.775-3.985,4.284-6.877,8.344-6.877h68.957L304,263.053
		v39.577h-22.237c-6.718-14.31-19.366-25.294-34.763-29.781v-50.719c0-4.142-3.358-7.5-7.5-7.5s-7.5,3.358-7.5,7.5v48.513
		c-0.167-0.001-0.332-0.013-0.5-0.013c-12.139,0-23.372,3.928-32.518,10.565L212.344,212.506z M41.216,326.047l5.43,32.583H31.5
		c-9.098,0-16.5-7.402-16.5-16.5s7.402-16.5,16.5-16.5h9.223C40.969,325.629,41.176,325.805,41.216,326.047z M43.307,257.992
		l17.027-84.241l10.419,25.47L43.307,257.992z M65.981,147.941c-0.183-0.448-0.225-0.921-0.154-1.373l0.009-0.042
		c0.004-0.019,0.005-0.037,0.008-0.056c0.151-0.761,0.636-1.446,1.372-1.814c1.132-0.565,2.496-0.234,3.241,0.79l58.169,79.983
		l21.055,77.2H143.5c-4.679,0-9.039,1.38-12.705,3.746L65.981,147.941z M167,342.629v-8.5c0-4.142-3.358-7.5-7.5-7.5
		s-7.5,3.358-7.5,7.5v8.5h-8.5c-4.687,0-8.5-3.813-8.5-8.5v-8c0-4.687,3.813-8.5,8.5-8.5h33.151c-0.428,2.772-0.651,5.61-0.651,8.5
		c0,5.743,0.877,11.286,2.504,16.5H167z M231.5,366.629c-22.332,0-40.5-18.168-40.5-40.5c0-2.736,0.276-5.407,0.796-7.992
		l0.044-0.227c3.809-18.404,20.144-32.281,39.66-32.281c22.332,0,40.5,18.168,40.5,40.5S253.832,366.629,231.5,366.629z
		 M328,334.129c0,4.687-3.813,8.5-8.5,8.5h-35.004c1.627-5.214,2.504-10.757,2.504-16.5c0-2.89-0.223-5.728-0.651-8.5H319.5
		c4.687,0,8.5,3.813,8.5,8.5V334.129z M383.5,366.629c-13.509,0-24.5-10.991-24.5-24.5s10.991-24.5,24.5-24.5s24.5,10.991,24.5,24.5
		S397.009,366.629,383.5,366.629z M351.764,318.643c-0.088-0.003-0.175-0.013-0.264-0.013h-9.734c-3.138-9.29-11.93-16-22.266-16
		H319v-27.754l53.026,29.459C363.83,306.828,356.755,311.916,351.764,318.643z M479.5,366.629c-9.098,0-16.5-7.402-16.5-16.5v-7.905
		c0-0.015,0-0.03,0-0.045v-0.051c0-9.098,7.402-16.5,16.5-16.5h1.062c0.248,0,0.46,0.185,0.495,0.429l5.796,40.571H479.5z"/>
</g>
<g>
</g>
<g>
</g>
<g>
</g>
<g>
</g>
<g>
</g>
<g>
</g>
<g>
</g>
<g>
</g>
<g>
</g>
<g>
</g>
<g>
</g>
<g>
</g>
<g>
</g>
<g>
</g>
<g>
</g>
</svg>
