<?xml version="1.0" encoding="iso-8859-1"?>
<!-- Generator: Adobe Illustrator 17.1.0, SVG Export Plug-In . SVG Version: 6.00 Build 0)  -->
<!DOCTYPE svg PUBLIC "-//W3C//DTD SVG 1.1//EN" "http://www.w3.org/Graphics/SVG/1.1/DTD/svg11.dtd">
<svg version="1.1" id="Capa_1" xmlns="http://www.w3.org/2000/svg" xmlns:xlink="http://www.w3.org/1999/xlink" x="0px" y="0px"
	 viewBox="0 0 511 511" style="enable-background:new 0 0 511 511;" xml:space="preserve">
<g>
	<path d="M148.622,304.236c-4.011,1.033-6.426,5.122-5.394,9.133c0.512,1.989,0.771,4.052,0.771,6.131
		c0,13.509-10.991,24.5-24.5,24.5S95,333.009,95,319.5s10.991-24.5,24.5-24.5c2.08,0,4.144,0.26,6.133,0.772
		c4.008,1.031,8.1-1.382,9.133-5.394c1.033-4.011-1.382-8.1-5.393-9.133c-3.211-0.827-6.533-1.246-9.874-1.246
		C97.72,280,80,297.72,80,319.5S97.72,359,119.5,359s39.5-17.72,39.5-39.5c0-3.34-0.419-6.661-1.245-9.871
		C156.722,305.618,152.632,303.203,148.622,304.236z"/>
	<path d="M396.622,304.236c-4.011,1.033-6.426,5.122-5.394,9.133c0.512,1.989,0.771,4.052,0.771,6.131
		c0,13.509-10.991,24.5-24.5,24.5S343,333.009,343,319.5s10.991-24.5,24.5-24.5c2.08,0,4.144,0.26,6.133,0.772
		c4.01,1.031,8.1-1.382,9.133-5.394c1.033-4.011-1.382-8.1-5.393-9.133c-3.211-0.827-6.533-1.246-9.874-1.246
		c-21.78,0-39.5,17.72-39.5,39.5s17.72,39.5,39.5,39.5s39.5-17.72,39.5-39.5c0-3.34-0.419-6.661-1.245-9.871
		C404.722,305.618,400.633,303.203,396.622,304.236z"/>
	<path d="M503.5,112H391.503c-0.002,0-0.003,0-0.005,0H124.755c-10.551,0-20.471,4.108-27.931,11.569L2.197,218.197
		c-2.145,2.145-2.787,5.371-1.626,8.173C1.732,229.173,4.466,231,7.5,231H64v0.5c0,9.134,5.241,17.061,12.87,20.948
		C54.727,266.576,40,291.343,40,319.5c0,43.836,35.664,79.5,79.5,79.5c41.306,0,75.343-31.669,79.136-72h89.728
		c3.793,40.331,37.83,72,79.136,72c32.65,0,60.754-19.791,72.978-48H487.5c8.547,0,15.5-6.953,15.5-15.5v-104
		c0-8.547-6.953-15.5-15.5-15.5H463v-32.5c0-12.958-10.542-23.5-23.5-23.5h-64c-4.142,0-7.5,3.358-7.5,7.5V216h-62.394l89-89H503.5
		c4.142,0,7.5-3.358,7.5-7.5S507.642,112,503.5,112z M119.5,384C83.935,384,55,355.066,55,319.5S83.935,255,119.5,255
		s64.5,28.935,64.5,64.5S155.066,384,119.5,384z M367.5,384c-35.565,0-64.5-28.935-64.5-64.5s28.935-64.5,64.5-64.5
		s64.5,28.935,64.5,64.5S403.066,384,367.5,384z M488,231.5v104c0,0.275-0.224,0.5-0.5,0.5h-42.233
		c1.129-5.326,1.733-10.843,1.733-16.5c0-43.836-35.664-79.5-79.5-79.5c-41.306,0-75.343,31.669-79.136,72h-89.728
		c-3.793-40.331-37.83-72-79.136-72h-32c-4.687,0-8.5-3.813-8.5-8.5V231h408.5C487.776,231,488,231.225,488,231.5z M383,175h56.5
		c4.687,0,8.5,3.813,8.5,8.5v0.5h-48.5c-4.142,0-7.5,3.358-7.5,7.5s3.358,7.5,7.5,7.5H448v17h-65V175z M284.394,216H71.5H25.607
		l81.824-81.824c4.627-4.627,10.78-7.176,17.324-7.176h248.639L284.394,216z"/>
	<path d="M266.197,204.803c1.464,1.464,3.384,2.197,5.303,2.197s3.839-0.732,5.303-2.197l56-56c2.929-2.929,2.929-7.677,0-10.606
		c-2.929-2.929-7.678-2.929-10.606,0l-56,56C263.268,197.126,263.268,201.874,266.197,204.803z"/>
	<path d="M226.197,204.803c1.464,1.464,3.384,2.197,5.303,2.197s3.839-0.732,5.303-2.197l56-56c2.929-2.929,2.929-7.677,0-10.606
		c-2.929-2.929-7.678-2.929-10.606,0l-56,56C223.268,197.126,223.268,201.874,226.197,204.803z"/>
	<path d="M186.197,204.803c1.464,1.464,3.384,2.197,5.303,2.197s3.839-0.732,5.303-2.197l56-56c2.929-2.929,2.929-7.677,0-10.606
		c-2.929-2.929-7.678-2.929-10.606,0l-56,56C183.268,197.126,183.268,201.874,186.197,204.803z"/>
	<path d="M146.197,204.803c1.464,1.464,3.384,2.197,5.303,2.197s3.839-0.732,5.303-2.197l56-56c2.929-2.929,2.929-7.677,0-10.606
		c-2.929-2.929-7.678-2.929-10.606,0l-56,56C143.268,197.126,143.268,201.874,146.197,204.803z"/>
	<path d="M106.197,204.803c1.464,1.464,3.384,2.197,5.303,2.197s3.839-0.732,5.303-2.197l56-56c2.929-2.929,2.929-7.677,0-10.606
		c-2.929-2.929-7.678-2.929-10.606,0l-56,56C103.268,197.126,103.268,201.874,106.197,204.803z"/>
	<path d="M66.197,194.197c-2.929,2.929-2.929,7.677,0,10.606C67.661,206.268,69.581,207,71.5,207s3.839-0.732,5.303-2.197l56-56
		c2.929-2.929,2.929-7.677,0-10.606c-2.929-2.929-7.678-2.929-10.606,0L66.197,194.197z"/>
	<path d="M279.5,272h-72c-4.142,0-7.5,3.358-7.5,7.5s3.358,7.5,7.5,7.5h72c4.142,0,7.5-3.358,7.5-7.5S283.642,272,279.5,272z"/>
</g>
<g>
</g>
<g>
</g>
<g>
</g>
<g>
</g>
<g>
</g>
<g>
</g>
<g>
</g>
<g>
</g>
<g>
</g>
<g>
</g>
<g>
</g>
<g>
</g>
<g>
</g>
<g>
</g>
<g>
</g>
</svg>
