<?xml version="1.0" encoding="utf-8"?>
<!-- Generator: Adobe Illustrator 19.2.1, SVG Export Plug-In . SVG Version: 6.00 Build 0)  -->
<svg version="1.1" id="Layer_1" xmlns="http://www.w3.org/2000/svg" xmlns:xlink="http://www.w3.org/1999/xlink" x="0px" y="0px"
	 viewBox="0 0 96 96" style="enable-background:new 0 0 96 96;" xml:space="preserve">
<path d="M62.8,8H33C19,8,8,19.3,8,33.2v13.6C8,60.7,19,72,33,72h16.5c2.7,4.7,9.5,13.3,24.5,15.8c0,0,0,0,0,0s0,0,0,0
	c-4.3-8.1-5.5-13.6-5.8-16.4C79.5,69,88,58.9,88,46.8V33.2C88,19.3,76.7,8,62.8,8z M84,46.8c0,9.9-7,18.7-16.7,20.7l-3.6,0.8
	l0.4,3.6c0.3,2.2,1,5.5,2.6,9.8c-7.9-3.2-12-8.4-13.8-11.7l-1.2-2h-2.3H33c-11.7,0-21-9.5-21-21.2V33.2C12,21.5,21.3,12,33,12h29.9
	C74.6,12,84,21.5,84,33.2V46.8z"/>
<path d="M48,18.6l-6,13.6l-14.8,1.5l11.1,9.9L35.2,58L48,50.6L60.8,58l-3.2-14.5l11.1-9.9L54,32.2L48,18.6z M53.3,42.1L55,50l-7-4.1
	L41,50l1.7-7.9l-6-5.4l8-0.8l3.3-7.4l3.3,7.4l8,0.8L53.3,42.1z"/>
</svg>
