<?xml version="1.0" encoding="utf-8"?>
<!-- Generator: Adobe Illustrator 19.2.1, SVG Export Plug-In . SVG Version: 6.00 Build 0)  -->
<svg version="1.1" id="Layer_1" xmlns="http://www.w3.org/2000/svg" xmlns:xlink="http://www.w3.org/1999/xlink" x="0px" y="0px"
	 viewBox="0 0 96 96" style="enable-background:new 0 0 96 96;" xml:space="preserve">
<path d="M56,8.8V0H40v8.8c-5.1,1-9.9,3.1-14.1,5.9l-6.3-6.3L8.2,19.7l6.4,6.4C10.4,32.3,8,39.9,8,48c0,22.1,17.9,40,40,40
	c22.1,0,40-17.9,40-40C88,28.6,74.3,12.5,56,8.8z M44,8V4h8v4H44z M19.5,14l2.8,2.8l-5.7,5.7l-2.8-2.8L19.5,14z M48,84
	c-19.9,0-36-16.1-36-36s16.1-36,36-36s36,16.1,36,36S67.9,84,48,84z"/>
<path d="M66.4,20.9c-0.5-0.3-1.1-0.6-1.8-0.9c-1.7-0.8-4.2-1.8-6.6-2.3c-2.5-0.6-5-0.8-6.9-0.8c-0.9,0-1.7,0-2.2,0.1
	C48.3,17,48,17,48,17s0.3,0,0.8,0.1c0.5,0.1,1.3,0.2,2.2,0.3c1.8,0.3,4.1,1,6.3,2c2.2,1,4.2,2.2,5.6,3.3c0.5,0.4,0.9,0.7,1.2,1
	L50.4,41.4C49.7,41.2,48.9,41,48,41c-3.9,0-7,3.1-7,7c0,1.5,0.5,3,1.3,4.1l-2.9,3.6l3.1,2.5l3-3.7c0.8,0.3,1.6,0.5,2.5,0.5
	c3.9,0,7-3.1,7-7c0-1.6-0.5-3-1.4-4.1l15.9-20.6L66.4,20.9z M48,51c-1.7,0-3-1.3-3-3c0-1.7,1.3-3,3-3s3,1.3,3,3
	C51,49.7,49.7,51,48,51z"/>
</svg>
