<?xml version="1.0" encoding="utf-8"?>
<!-- Generator: Adobe Illustrator 19.2.1, SVG Export Plug-In . SVG Version: 6.00 Build 0)  -->
<svg version="1.1" id="Layer_1" xmlns="http://www.w3.org/2000/svg" xmlns:xlink="http://www.w3.org/1999/xlink" x="0px" y="0px"
	 viewBox="0 0 24 24" style="enable-background:new 0 0 24 24;" xml:space="preserve">
<path d="M13.1,6.5C13.6,5.8,14,5,14,4c0-2.2-1.8-4-4-4S6,1.8,6,4c0,1,0.4,1.9,0.9,2.5C3.5,7.8,1,11.1,1,15v4h2v-4c0-3.9,3.1-7,7-7
	c2.8,0,5.2,1.6,6.3,4H7v12h16V12h-4.5C17.6,9.5,15.6,7.5,13.1,6.5z M10,2c1.1,0,2,0.9,2,2s-0.9,2-2,2S8,5.1,8,4S8.9,2,10,2z M9,22
	v-5.3l6,3.4l6-3.4V22H9z M21,14.4l-6,3.4l-6-3.4V14h12V14.4z"/>
</svg>
