<?xml version="1.0" encoding="utf-8"?>
<!-- Generator: Adobe Illustrator 19.2.1, SVG Export Plug-In . SVG Version: 6.00 Build 0)  -->
<svg version="1.1" id="Layer_1" xmlns="http://www.w3.org/2000/svg" xmlns:xlink="http://www.w3.org/1999/xlink" x="0px" y="0px"
	 viewBox="0 0 24 24" style="enable-background:new 0 0 24 24;" xml:space="preserve">
<path d="M9.3,15.3c-0.4,0.4-0.4,1,0,1.4C9.5,16.9,9.7,17,10,17s0.5-0.1,0.7-0.3l4-4c0.4-0.4,0.4-1,0-1.4l-4-4c-0.4-0.4-1-0.4-1.4,0
	s-0.4,1,0,1.4l2.3,2.3H3v2h8.6L9.3,15.3z"/>
<path d="M12,0C7,0,3,4,3,9h2c0-3.9,3.1-7,7-7s7,3.1,7,7v6c0,3.9-3.1,7-7,7s-7-3.1-7-7H3c0,5,4,9,9,9s9-4,9-9V9C21,4,17,0,12,0z"/>
</svg>
