<?xml version="1.0" encoding="utf-8"?>
<!-- Generator: Adobe Illustrator 19.2.1, SVG Export Plug-In . SVG Version: 6.00 Build 0)  -->
<svg version="1.1" id="Layer_1" xmlns="http://www.w3.org/2000/svg" xmlns:xlink="http://www.w3.org/1999/xlink" x="0px" y="0px"
	 viewBox="0 0 48 48" style="enable-background:new 0 0 48 48;" xml:space="preserve">
<path d="M37,2c1.7,0,3,1.3,3,3s-1.3,3-3,3H11C9.3,8,8,6.7,8,5s1.3-3,3-3H37 M37,0H11C8.2,0,6,2.2,6,5s2.2,5,5,5h26c2.8,0,5-2.2,5-5
	S39.8,0,37,0L37,0z"/>
<rect x="10" y="4" width="13" height="2"/>
<path d="M37,14c1.7,0,3,1.3,3,3c0,1.7-1.3,3-3,3H11c-1.7,0-3-1.3-3-3c0-1.7,1.3-3,3-3H37 M37,12H11c-2.8,0-5,2.2-5,5v0
	c0,2.8,2.2,5,5,5h26c2.8,0,5-2.2,5-5v0C42,14.2,39.8,12,37,12L37,12z"/>
<rect x="10" y="16" width="22" height="2"/>
<path d="M37,26c1.7,0,3,1.3,3,3c0,1.7-1.3,3-3,3H11c-1.7,0-3-1.3-3-3c0-1.7,1.3-3,3-3H37 M37,24H11c-2.8,0-5,2.2-5,5v0
	c0,2.8,2.2,5,5,5h26c2.8,0,5-2.2,5-5v0C42,26.2,39.8,24,37,24L37,24z"/>
<rect x="10" y="28" width="16" height="2"/>
<path d="M20,42c1.1,0,2,0.9,2,2s-0.9,2-2,2H10c-1.1,0-2-0.9-2-2s0.9-2,2-2H20 M20,40H10c-2.2,0-4,1.8-4,4s1.8,4,4,4h10
	c2.2,0,4-1.8,4-4S22.2,40,20,40L20,40z"/>
</svg>
