<?xml version="1.0" encoding="utf-8"?>
<!-- Generator: Adobe Illustrator 19.2.1, SVG Export Plug-In . SVG Version: 6.00 Build 0)  -->
<svg version="1.1" id="Layer_1" xmlns="http://www.w3.org/2000/svg" xmlns:xlink="http://www.w3.org/1999/xlink" x="0px" y="0px"
	 viewBox="0 0 24 24" style="enable-background:new 0 0 24 24;" xml:space="preserve">
<path d="M13.7,2h-3.3C5.7,2,2,5.6,2,10c0,4.4,3.7,8,8.3,8h1.9l8.8,4l-1.4-6.4c1.5-1.4,2.4-3.4,2.4-5.6C22,5.6,18.3,2,13.7,2z
	 M18.2,14.2L17.4,15l0.2,1.1l0.5,2.5L13,16.2L12.6,16h-0.4h-1.9C6.8,16,4,13.3,4,10s2.8-6,6.3-6h3.5c3.5,0,6.2,2.7,6.2,6
	C20.1,11.6,19.4,13.1,18.2,14.2z"/>
</svg>
