<?xml version="1.0" encoding="utf-8"?>
<!-- Generator: Adobe Illustrator 19.2.1, SVG Export Plug-In . SVG Version: 6.00 Build 0)  -->
<svg version="1.1" id="Layer_1" xmlns="http://www.w3.org/2000/svg" xmlns:xlink="http://www.w3.org/1999/xlink" x="0px" y="0px"
	 viewBox="0 0 24 24" style="enable-background:new 0 0 24 24;" xml:space="preserve">
<style type="text/css">
	.st0{fill:#231F20;}
</style>
<path class="st0" d="M9.3,23.7L9.3,23.7L9.3,23.7c-0.5-0.1-0.9-0.6-0.8-1.2l0,0c0.1-0.5,0.7-0.9,1.2-0.8l0,0
	c0.5,0.1,0.9,0.7,0.8,1.2l0,0c-0.1,0.5-0.5,0.8-1,0.8l0,0C9.5,23.7,9.4,23.7,9.3,23.7z M13.5,22.9c-0.1-0.5,0.2-1.1,0.8-1.2h0
	c0.5-0.1,1.1,0.2,1.2,0.8l0,0c0.1,0.5-0.2,1.1-0.8,1.2l0,0c-0.1,0-0.1,0-0.2,0l0,0C14,23.7,13.6,23.4,13.5,22.9z M4.5,21.4
	C4.1,21,4,20.4,4.4,20l0,0c0.4-0.4,1-0.5,1.4-0.2l0,0c0.4,0.3,0.5,1,0.2,1.4l0,0c-0.2,0.3-0.5,0.4-0.8,0.4l0,0
	C4.9,21.6,4.7,21.5,4.5,21.4z M18.1,21.2c-0.3-0.4-0.3-1.1,0.2-1.4l0,0c0.4-0.4,1.1-0.3,1.4,0.1l0,0c0.3,0.4,0.3,1.1-0.2,1.4l0,0
	c-0.2,0.1-0.4,0.2-0.6,0.2l0,0C18.6,21.6,18.3,21.5,18.1,21.2z M1.2,17.2c-0.2-0.5,0-1.1,0.5-1.3l0,0c0.5-0.2,1.1,0,1.3,0.5l0,0
	c0.2,0.5,0,1.1-0.5,1.3l0,0c-0.1,0.1-0.3,0.1-0.4,0.1l0,0C1.7,17.8,1.4,17.6,1.2,17.2z M21.5,17.7c-0.5-0.2-0.7-0.8-0.5-1.3l0,0
	c0.2-0.5,0.8-0.7,1.3-0.5l0,0c0.5,0.2,0.7,0.8,0.5,1.3l0,0c-0.2,0.4-0.5,0.6-0.9,0.6l0,0C21.8,17.8,21.6,17.7,21.5,17.7z M0,12
	C0,12,0,12,0,12L0,12c0-0.6,0.4-1,1-1l0,0c0.5,0,1,0.4,1,1l0,0c0,0.5-0.4,1-1,1l0,0C0.4,13,0,12.6,0,12z M22,12C22,12,22,12,22,12
	L22,12c0-0.6,0.4-1.1,1-1.1l0,0c0.5,0,1,0.4,1,1l0,0l0,0l0,0c0,0,0,0,0,0l0,0c0,0,0,0,0,0l0,0c0,0.5-0.5,1-1,1l0,0
	C22.5,13,22,12.6,22,12z M1.6,8.1C1.1,7.9,0.9,7.3,1.2,6.8l0,0C1.4,6.3,2,6.1,2.5,6.3l0,0C3,6.6,3.2,7.2,3,7.7l0,0
	C2.8,8,2.4,8.3,2.1,8.3l0,0C1.9,8.3,1.8,8.2,1.6,8.1z M21,7.6L21,7.6c-0.3-0.5,0-1.1,0.5-1.3l0,0c0.5-0.2,1.1,0,1.3,0.5l0,0
	c0.2,0.5,0,1.1-0.5,1.3l0,0c-0.1,0.1-0.3,0.1-0.4,0.1l0,0C21.5,8.2,21.2,8,21,7.6z M4.3,4C4,3.6,4.1,3,4.5,2.6l0,0
	c0.4-0.3,1.1-0.3,1.4,0.2l0,0c0.4,0.4,0.3,1.1-0.2,1.4l0,0C5.6,4.3,5.3,4.4,5.1,4.4l0,0C4.8,4.4,4.5,4.3,4.3,4z M18.2,4.2
	c-0.4-0.3-0.5-1-0.2-1.4l0,0c0.3-0.4,1-0.5,1.4-0.2l0,0c0.4,0.4,0.5,1,0.2,1.4l0,0c-0.2,0.3-0.5,0.4-0.8,0.4l0,0
	C18.6,4.4,18.4,4.3,18.2,4.2z M8.5,1.5C8.4,1,8.8,0.4,9.3,0.3l0,0l0,0l0,0c0.5-0.1,1.1,0.2,1.2,0.8l0,0c0.1,0.5-0.2,1.1-0.8,1.2l0,0
	c-0.1,0-0.2,0-0.2,0l0,0C9.1,2.3,8.6,2,8.5,1.5z M14.2,2.2L14.2,2.2c-0.5-0.1-0.9-0.6-0.8-1.2l0,0c0.1-0.5,0.6-0.9,1.2-0.8l0,0
	c0.5,0.1,0.9,0.7,0.8,1.2l0,0c-0.1,0.5-0.5,0.8-1,0.8l0,0C14.3,2.3,14.3,2.3,14.2,2.2z"/>
</svg>
