<?xml version="1.0" encoding="utf-8"?>
<!-- Generator: Adobe Illustrator 19.2.1, SVG Export Plug-In . SVG Version: 6.00 Build 0)  -->
<svg version="1.1" id="Layer_1" xmlns="http://www.w3.org/2000/svg" xmlns:xlink="http://www.w3.org/1999/xlink" x="0px" y="0px"
	 viewBox="0 0 16 16" style="enable-background:new 0 0 16 16;" xml:space="preserve">
<path d="M8,0C3.6,0,0,3.6,0,8s3.6,8,8,8s8-3.6,8-8S12.4,0,8,0z M8,15c-3.9,0-7-3.1-7-7s3.1-7,7-7s7,3.1,7,7S11.9,15,8,15z"/>
<path d="M7.9,10.9c-0.3,0-0.6,0.2-0.6,0.6c0,0.3,0.2,0.6,0.6,0.6h0c0.4,0,0.6-0.3,0.6-0.6C8.5,11.2,8.2,10.9,7.9,10.9z"/>
<path d="M8.2,4C7.5,4,6.8,4.2,6.4,4.5l0.3,0.8C7,5.1,7.5,4.9,8,4.9c0.8,0,1.2,0.5,1.2,1.1c0,0.6-0.3,1.1-0.9,1.8
	c-0.6,0.7-1,1.5-0.9,2.2h1c0-0.6,0.3-1.2,0.9-1.9c0.6-0.7,1.1-1.4,1.1-2.2C10.4,4.9,9.7,4,8.2,4z"/>
</svg>
