<?xml version="1.0" encoding="utf-8"?>
<!-- Generator: Adobe Illustrator 19.2.1, SVG Export Plug-In . SVG Version: 6.00 Build 0)  -->
<svg version="1.1" id="Layer_1" xmlns="http://www.w3.org/2000/svg" xmlns:xlink="http://www.w3.org/1999/xlink" x="0px" y="0px"
	 viewBox="0 0 24 24" style="enable-background:new 0 0 24 24;" xml:space="preserve">
<rect x="7" y="13" width="2" height="11"/>
<rect x="15" y="13" width="2" height="11"/>
<path d="M5,15c0-3.9,3.1-7,7-7c3.9,0,7,3.1,7,7v4h2v-4c0-3.9-2.5-7.2-5.9-8.5C15.6,5.9,16,5,16,4c0-2.2-1.8-4-4-4S8,1.8,8,4
	c0,1,0.4,1.9,0.9,2.5C5.5,7.8,3,11.1,3,15v4h2V15z M12,2c1.1,0,2,0.9,2,2c0,1.1-0.9,2-2,2s-2-0.9-2-2C10,2.9,10.9,2,12,2z"/>
</svg>
