<?xml version="1.0" encoding="iso-8859-1"?>
<!-- Generator: Adobe Illustrator 17.1.0, SVG Export Plug-In . SVG Version: 6.00 Build 0)  -->
<!DOCTYPE svg PUBLIC "-//W3C//DTD SVG 1.1//EN" "http://www.w3.org/Graphics/SVG/1.1/DTD/svg11.dtd">
<svg version="1.1" id="Capa_1" xmlns="http://www.w3.org/2000/svg" xmlns:xlink="http://www.w3.org/1999/xlink" x="0px" y="0px"
	 viewBox="0 0 511 511" style="enable-background:new 0 0 511 511;" xml:space="preserve">
<g>
	<path d="M431.5,372h-208c-4.142,0-7.5,3.358-7.5,7.5s3.358,7.5,7.5,7.5h208c4.142,0,7.5-3.358,7.5-7.5S435.642,372,431.5,372z"/>
	<path d="M495,317.234v-38.149c0-0.833-0.036-1.664-0.088-2.492c0.052-0.358,0.088-0.721,0.088-1.093
		c0-0.962-0.188-1.878-0.517-2.723c-1.128-6.946-4.093-13.525-8.638-18.979l-27.786-33.343c-4.478-5.374-11.058-8.456-18.053-8.456
		H351v-73.873c0-6.277-2.444-12.179-6.883-16.617l-11.313-11.313c-2.929-2.929-7.678-2.929-10.606,0
		c-2.929,2.929-2.929,7.678,0,10.606l11.313,11.313c1.605,1.605,2.49,3.74,2.49,6.011v58.423c-6.739-5.346-15.25-8.551-24.5-8.551
		H287v-73h8.5c4.142,0,7.5-3.358,7.5-7.5s-3.358-7.5-7.5-7.5h-160c-4.142,0-7.5,3.358-7.5,7.5s3.358,7.5,7.5,7.5h8.5v64.5
		c0,12.958,10.542,23.5,23.5,23.5h0.5v65.873c0,6.277,2.444,12.179,6.883,16.617l30.51,30.51H191.5
		c-5.843,0-11.19,2.148-15.305,5.69c-4.261-3.678-9.636-5.69-15.322-5.69H143v-0.5c0-4.142-3.358-7.5-7.5-7.5h-56
		c-4.142,0-7.5,3.358-7.5,7.5v8.525c-0.166-0.011-0.331-0.025-0.5-0.025h-16c-4.687,0-8.5-3.813-8.5-8.5c0-4.142-3.358-7.5-7.5-7.5
		h-16C14.953,308,8,314.953,8,323.5v42.445c-4.765,2.647-8,7.728-8,13.555v24c0,4.142,3.358,7.5,7.5,7.5h136
		c4.142,0,7.5-3.358,7.5-7.5v-24c0-5.827-3.235-10.908-8-13.555V331h17.873c2.271,0,4.405,0.884,6.011,2.49l1.547,1.547
		c-0.279,1.446-0.43,2.937-0.43,4.463v32c0,8.547,6.953,15.5,15.5,15.5h9.409c3.374,13.759,15.806,24,30.591,24h208
		c14.785,0,27.216-10.241,30.591-24H495.5c8.547,0,15.5-6.953,15.5-15.5v-32C511,329.164,504.29,320.372,495,317.234z M23.5,323
		h9.727c3.137,9.292,11.936,16,22.273,16h16c0.169,0,0.334-0.014,0.5-0.025V364H23v-40.5C23,323.224,23.224,323,23.5,323z M136,396
		H15v-16.5c0-0.276,0.224-0.5,0.5-0.5h88c4.142,0,7.5-3.358,7.5-7.5s-3.358-7.5-7.5-7.5H87v-41h41v48.5c0,4.142,3.358,7.5,7.5,7.5
		c0.276,0,0.5,0.224,0.5,0.5V396z M446.536,230.058l27.786,33.343c1.182,1.419,2.173,2.97,3,4.599H391.5c-4.142,0-7.5,3.358-7.5,7.5
		s3.358,7.5,7.5,7.5H480v33H351v-33h8.5c4.142,0,7.5-3.358,7.5-7.5s-3.358-7.5-7.5-7.5H351v-40.5c0-0.168-0.011-0.333-0.013-0.5
		h89.019C442.536,227,444.916,228.115,446.536,230.058z M159,179.5V115h113v80.5V212h-45.667c-3.496,0-6.594-2.097-7.892-5.343
		l-5.577-13.942c-1.139-2.847-3.896-4.714-6.963-4.714h-38.4C162.813,188,159,184.187,159,179.5z M200.822,203l3.691,9.228
		c3.589,8.974,12.154,14.772,21.819,14.772H279.5c4.142,0,7.5-3.358,7.5-7.5V203h24.5c13.509,0,24.5,10.991,24.5,24.5v8.5H183v-33
		H200.822z M185.49,274.883c-1.605-1.605-2.49-3.74-2.49-6.011V251h153v65H226.606L185.49,274.883z M183,371.5v-21.894
		l11.197,11.197c0.81,0.81,1.761,1.387,2.772,1.749c-1.838,2.868-3.226,6.049-4.059,9.448H183.5C183.224,372,183,371.776,183,371.5z
		 M431.5,396h-208c-9.098,0-16.5-7.402-16.5-16.5s7.402-16.5,16.5-16.5h208c9.098,0,16.5,7.402,16.5,16.5S440.598,396,431.5,396z
		 M496,371.5c0,0.276-0.224,0.5-0.5,0.5h-33.409c-3.374-13.759-15.806-24-30.591-24h-208c-6.236,0-12.05,1.829-16.947,4.969
		c-0.362-1.011-0.94-1.962-1.75-2.772l-17.86-17.86c1.319-0.842,2.88-1.337,4.557-1.337h296c4.687,0,8.5,3.813,8.5,8.5V371.5z"/>
</g>
<g>
</g>
<g>
</g>
<g>
</g>
<g>
</g>
<g>
</g>
<g>
</g>
<g>
</g>
<g>
</g>
<g>
</g>
<g>
</g>
<g>
</g>
<g>
</g>
<g>
</g>
<g>
</g>
<g>
</g>
</svg>
