<?xml version="1.0" ?><!DOCTYPE svg  PUBLIC '-//W3C//DTD SVG 1.1//EN'  'http://www.w3.org/Graphics/SVG/1.1/DTD/svg11.dtd'><svg enable-background="new 0 0 256 256" id="Layer_1" version="1.1" viewBox="0 0 256 256" xml:space="preserve" xmlns="http://www.w3.org/2000/svg" xmlns:xlink="http://www.w3.org/1999/xlink"><g><path d="M79.8,134.4c-7.4,0-13.5,6-13.5,13.5c0,7.4,6,13.5,13.5,13.5c7.4,0,13.5-6,13.5-13.5C93.3,140.4,87.3,134.4,79.8,134.4z    M79.8,156.2c-4.6,0-8.4-3.8-8.4-8.4c0-4.6,3.8-8.4,8.4-8.4c4.6,0,8.4,3.8,8.4,8.4C88.3,152.5,84.5,156.2,79.8,156.2z"/><path d="M49.5,134.4c-7.4,0-13.5,6-13.5,13.5c0,7.4,6,13.5,13.5,13.5c7.4,0,13.5-6,13.5-13.5C63,140.4,57,134.4,49.5,134.4z    M49.5,156.2c-4.6,0-8.4-3.8-8.4-8.4c0-4.6,3.8-8.4,8.4-8.4c4.6,0,8.4,3.8,8.4,8.4C58,152.5,54.2,156.2,49.5,156.2z"/><path d="M248.1,104.4c-1.8-3.1-6.1-9.5-8.9-12.6c-1.9-2.1-6.4-2.8-9.2-2.8h-10.7c-2.8,0-6.2,1.9-6.2,4.7V133h-10.9   c-2.8,0-6.1,1.4-6.1,4.2v3c0,2.8,3.4,4.9,6.1,4.9h11.1c1.7-8,8.4-13.6,16.4-13.6c8,0,14.6,5.4,16.3,12.9c2.3-0.5,4-2.7,4-5.2v-1.4   v-0.6v-25.2C250,111.9,249.8,107.3,248.1,104.4z M243,118h-25V95h16.3l8.7,15.2V118z"/><path d="M229.6,134.4c-7.4,0-13.5,6-13.5,13.5c0,7.4,6,13.5,13.5,13.5c7.4,0,13.5-6,13.5-13.5C243.1,140.4,237.1,134.4,229.6,134.4   z M229.6,156.2c-4.6,0-8.4-3.8-8.4-8.4c0-4.6,3.8-8.4,8.4-8.4c4.6,0,8.4,3.8,8.4,8.4C238,152.5,234.3,156.2,229.6,156.2z"/><path d="M177.5,134.4c-7.4,0-13.5,6-13.5,13.5c0,7.4,6,13.5,13.5,13.5c7.4,0,13.5-6,13.5-13.5C190.9,140.4,184.9,134.4,177.5,134.4   z M177.5,156.2c-4.6,0-8.4-3.8-8.4-8.4c0-4.6,3.8-8.4,8.4-8.4c4.6,0,8.4,3.8,8.4,8.4C185.9,152.5,182.1,156.2,177.5,156.2z"/><path d="M141.4,133H85.6c5.2,2,9.2,6,10.5,12h34.7C132.2,139,136.2,135,141.4,133z"/><path d="M171.7,133h-18.8c4.1,2,7.5,4.6,9.4,8.5C164.2,137.6,167.6,135,171.7,133z"/><path d="M74.1,133H55.3c4.1,2,7.5,4.6,9.4,8.5C66.6,137.6,70,135,74.1,133z"/><path d="M43.7,133H27.6L25,101h-7v34.5l-1.8,0.5l-3-40H6v42.8v4v6.1l22.3-3.9h4.9C34.6,139,38.5,135,43.7,133z"/><path d="M209,118h-29v9v1.7v2.5c6,0.9,11,5.2,12,10.9v-6.7v-3.4V129h17V118z"/><path d="M147.2,134.4c-7.4,0-13.5,6-13.5,13.5c0,7.4,6,13.5,13.5,13.5c7.4,0,13.5-6,13.5-13.5C160.6,140.4,154.6,134.4,147.2,134.4   z M147.2,156.2c-4.6,0-8.4-3.8-8.4-8.4c0-4.6,3.8-8.4,8.4-8.4c4.6,0,8.4,3.8,8.4,8.4C155.6,152.5,151.8,156.2,147.2,156.2z"/></g></svg>