<?xml version="1.0" encoding="iso-8859-1"?>
<!-- Generator: Adobe Illustrator 17.1.0, SVG Export Plug-In . SVG Version: 6.00 Build 0)  -->
<!DOCTYPE svg PUBLIC "-//W3C//DTD SVG 1.1//EN" "http://www.w3.org/Graphics/SVG/1.1/DTD/svg11.dtd">
<svg version="1.1" id="Capa_1" xmlns="http://www.w3.org/2000/svg" xmlns:xlink="http://www.w3.org/1999/xlink" x="0px" y="0px"
	 viewBox="0 0 511 511" style="enable-background:new 0 0 511 511;" xml:space="preserve">
<g>
	<path d="M203.026,304.457c-1.662-3.795-6.086-5.523-9.879-3.86c-3.794,1.662-5.522,6.085-3.86,9.879
		c1.8,4.109,2.713,8.492,2.713,13.025c0,17.92-14.58,32.5-32.5,32.5S127,341.42,127,323.5s14.58-32.5,32.5-32.5
		c4.523,0,8.897,0.909,13,2.702c3.796,1.659,8.217-0.073,9.876-3.869c1.659-3.795-0.074-8.217-3.869-9.876
		C172.498,277.332,166.104,276,159.5,276c-26.191,0-47.5,21.309-47.5,47.5s21.309,47.5,47.5,47.5s47.5-21.309,47.5-47.5
		C207,316.882,205.663,310.475,203.026,304.457z"/>
	<path d="M487.5,308h-4.455c-9.896-28.535-36.882-48-67.545-48c-21.135,0-40.514,9.252-53.763,24.34
		c-0.707-0.221-1.458-0.34-2.237-0.34H343v-66.637c0-10.276-2.156-20.23-6.409-29.587l-29.794-65.547
		c2.487-1.221,4.203-3.771,4.203-6.729c0-4.142-3.358-7.5-7.5-7.5h-96c-4.142,0-7.5,3.358-7.5,7.5s3.358,7.5,7.5,7.5h0.5v137.573
		c-3.013-2.327-6.195-4.442-9.527-6.324c0.336-0.852,0.527-1.777,0.527-2.748v-48c0-4.142-3.358-7.5-7.5-7.5H159v-38.559
		c0-8.414-3.276-16.324-9.226-22.273l-8.971-8.971c-2.929-2.929-7.678-2.929-10.606,0c-2.929,2.929-2.929,7.678,0,10.606
		l8.971,8.971c3.116,3.116,4.833,7.26,4.833,11.667V196h-39.637c-7.157,0-14.185,1.946-20.323,5.629l-56.863,34.118
		C15.348,242.844,8,255.823,8,269.618V292H7.5c-4.142,0-7.5,3.358-7.5,7.5v17.373c0,6.277,2.444,12.179,6.883,16.617l14.627,14.627
		c4.438,4.439,10.34,6.883,16.617,6.883h48.395c12.224,28.21,40.328,48,72.978,48c38.533,0,70.74-27.56,77.972-64h83.763
		c3.138,9.29,11.93,16,22.266,16h4.455c9.896,28.534,36.885,48,67.545,48c30.667,0,57.651-19.464,67.546-48h4.454
		c12.958,0,23.5-10.542,23.5-23.5S500.458,308,487.5,308z M415.5,275c22.424,0,42.355,13.171,51.401,33H364.099
		C373.145,288.17,393.074,275,415.5,275z M328,217.363v0.318l-54.947-14.985C262.424,199.796,255,190.077,255,179.059V123h35.671
		l32.265,70.983C326.296,201.376,328,209.242,328,217.363z M240,123v56.059c0,17.764,11.969,33.435,29.107,38.108L328,233.229V284
		h-96.5c-0.971,0-1.896,0.191-2.748,0.527c-1.733-3.067-3.652-6.015-5.763-8.813c0.002-0.072,0.011-0.142,0.011-0.214V123H240z
		 M23,269.618c0-8.557,4.558-16.606,11.895-21.009l56.863-34.118c3.807-2.284,8.166-3.491,12.605-3.491H144v16.5
		c0,4.142,3.358,7.5,7.5,7.5s7.5-3.358,7.5-7.5V211h25v36.88c-7.722-2.508-15.952-3.88-24.5-3.88c-12.445,0-24.227,2.88-34.725,8
		H55.5c-4.142,0-7.5,3.358-7.5,7.5s3.358,7.5,7.5,7.5h48.138c-7.195,7.114-13.037,15.588-17.116,25H23V269.618z M38.127,340
		c-2.271,0-4.405-0.884-6.011-2.49L17.49,322.883c-1.605-1.605-2.49-3.74-2.49-6.011V307h0.5h66.233
		C80.604,312.326,80,317.843,80,323.5s0.604,11.174,1.733,16.5H38.127z M159.5,388c-35.565,0-64.5-28.935-64.5-64.5
		s28.935-64.5,64.5-64.5s64.5,28.935,64.5,64.5S195.065,388,159.5,388z M235.12,299h116.673c-1.469,2.884-2.758,5.886-3.838,9H343.5
		c-10.336,0-19.128,6.71-22.266,16h-82.247c0.001-0.167,0.013-0.332,0.013-0.5C239,314.952,237.628,306.722,235.12,299z M415.5,388
		c-22.422,0-42.355-13.172-51.401-33h102.802C457.855,374.83,437.926,388,415.5,388z M487.5,340h-144c-4.687,0-8.5-3.813-8.5-8.5
		s3.813-8.5,8.5-8.5h9.999c0.008,0,0.016,0.001,0.023,0.001c0.006,0,0.012-0.001,0.018-0.001H487.5c4.687,0,8.5,3.813,8.5,8.5
		S492.187,340,487.5,340z"/>
	<path d="M247.5,267h56c4.142,0,7.5-3.358,7.5-7.5s-3.358-7.5-7.5-7.5h-56c-4.142,0-7.5,3.358-7.5,7.5S243.358,267,247.5,267z"/>
</g>
<g>
</g>
<g>
</g>
<g>
</g>
<g>
</g>
<g>
</g>
<g>
</g>
<g>
</g>
<g>
</g>
<g>
</g>
<g>
</g>
<g>
</g>
<g>
</g>
<g>
</g>
<g>
</g>
<g>
</g>
</svg>
