<?xml version="1.0" encoding="iso-8859-1"?>
<!-- Generator: Adobe Illustrator 17.1.0, SVG Export Plug-In . SVG Version: 6.00 Build 0)  -->
<!DOCTYPE svg PUBLIC "-//W3C//DTD SVG 1.1//EN" "http://www.w3.org/Graphics/SVG/1.1/DTD/svg11.dtd">
<svg version="1.1" id="Capa_1" xmlns="http://www.w3.org/2000/svg" xmlns:xlink="http://www.w3.org/1999/xlink" x="0px" y="0px"
	 viewBox="0 0 511.001 511.001" style="enable-background:new 0 0 511.001 511.001;" xml:space="preserve">
<g>
	<path d="M71.5,312.001c-1.97,0-3.91,0.8-5.3,2.2c-1.4,1.39-2.2,3.33-2.2,5.3s0.8,3.91,2.2,5.3c1.39,1.4,3.33,2.2,5.3,2.2
		c1.97,0,3.91-0.8,5.3-2.2c1.4-1.39,2.2-3.33,2.2-5.3s-0.8-3.91-2.2-5.3C75.41,312.801,73.47,312.001,71.5,312.001z"/>
	<path d="M119.5,312.001c-1.97,0-3.91,0.8-5.3,2.2c-1.4,1.39-2.2,3.33-2.2,5.3s0.8,3.91,2.2,5.3c1.39,1.4,3.33,2.2,5.3,2.2
		c1.98,0,3.91-0.8,5.3-2.2c1.4-1.39,2.2-3.33,2.2-5.3s-0.8-3.91-2.2-5.3C123.41,312.801,121.47,312.001,119.5,312.001z"/>
	<path d="M271.5,312.001c-1.98,0-3.91,0.8-5.3,2.2c-1.4,1.39-2.2,3.32-2.2,5.3c0,1.97,0.8,3.91,2.2,5.3c1.39,1.4,3.33,2.2,5.3,2.2
		c1.97,0,3.91-0.8,5.3-2.2c1.4-1.39,2.2-3.33,2.2-5.3s-0.8-3.91-2.2-5.3C275.41,312.801,273.48,312.001,271.5,312.001z"/>
	<path d="M319.5,312.001c-1.97,0-3.91,0.8-5.3,2.2c-1.4,1.39-2.2,3.33-2.2,5.3c0,1.98,0.8,3.91,2.2,5.3c1.39,1.4,3.33,2.2,5.3,2.2
		c1.97,0,3.91-0.8,5.3-2.2c1.4-1.39,2.2-3.33,2.2-5.3s-0.8-3.91-2.2-5.3C323.41,312.801,321.47,312.001,319.5,312.001z"/>
	<path d="M502.432,182.581l-27.578-13.789c-1.68-0.84-3.584-0.998-5.347-0.512c-0.64-0.177-1.311-0.28-2.007-0.28H115.212
		c-4.348-4.913-10.674-8-17.589-8H63.5c-4.142,0-7.5,3.358-7.5,7.5v24.5H15.5c-8.547,0-15.5,6.953-15.5,15.5v16
		c0,8.547,6.953,15.5,15.5,15.5H40v16.5c0,4.142,3.358,7.5,7.5,7.5H72v9H31.5c-8.547,0-15.5,6.953-15.5,15.5v9.441
		c0,7.118,4.897,13.328,11.746,15.039l12.385,4.733c-0.081,0.919-0.13,1.847-0.13,2.787c0,17.369,14.131,31.5,31.5,31.5
		c9.607,0,18.217-4.328,24-11.131c5.783,6.803,14.393,11.131,24,11.131c14.785,0,27.216-10.241,30.591-24H160v0.5
		c0,8.547,6.953,15.5,15.5,15.5h40c8.547,0,15.5-6.953,15.5-15.5v-0.5h8.5c0.472,0,0.931-0.049,1.379-0.132
		c3.327,13.826,15.789,24.132,30.621,24.132c9.607,0,18.217-4.328,24-11.131c5.783,6.803,14.393,11.131,24,11.131
		c14.785,0,27.216-10.241,30.591-24H423.5c8.547,0,15.5-6.953,15.5-15.5v-32c0-0.321-0.027-0.635-0.066-0.944
		c-0.01-0.078-0.023-0.154-0.035-0.23c-0.042-0.263-0.096-0.521-0.164-0.775c-0.01-0.036-0.013-0.074-0.023-0.11l-12.685-44.396
		c-2.867-10.035-12.159-17.044-22.596-17.044H359.5c-4.142,0-7.5,3.358-7.5,7.5v8.5h-9.263c-0.56-3.068-2.024-5.894-4.277-8.146
		l-5.657-5.657c-2.929-2.929-7.678-2.929-10.606,0c-2.929,2.929-2.929,7.677,0,10.606l3.197,3.197H247.5
		c-8.547,0-15.5,6.953-15.5,15.5v24.5H119v-9h7.5c4.687,0,8.5-3.813,8.5-8.5v-9.849l97.892-37.651h231.754
		c1.198,4.042,4.009,7.463,7.922,9.419L496,228.136v19.365c0,4.142,3.358,7.5,7.5,7.5s7.5-3.358,7.5-7.5v-23.838
		c0.002-0.104,0.002-0.208,0-0.313v-26.905C511,190.536,507.717,185.224,502.432,182.581z M122.576,192.001l-1.286-9H464v9H122.576z
		 M71,175.001h26.623c4.203,0,7.82,3.138,8.415,7.298l4.815,33.702H71V175.001z M15,223.501v-16c0-0.275,0.224-0.5,0.5-0.5H56v9
		h-7.5c-4.518,0-8.214,3.546-8.475,8H15.5C15.224,224.001,15,223.776,15,223.501z M71.5,336.001c-9.098,0-16.5-7.402-16.5-16.5
		s7.402-16.5,16.5-16.5s16.5,7.402,16.5,16.5S80.598,336.001,71.5,336.001z M119.5,336.001c-9.098,0-16.5-7.402-16.5-16.5
		s7.402-16.5,16.5-16.5s16.5,7.402,16.5,16.5S128.598,336.001,119.5,336.001z M216,327.501c0,0.257-0.243,0.5-0.5,0.5h-40
		c-0.257,0-0.5-0.243-0.5-0.5v-16c0-0.257,0.243-0.5,0.5-0.5h40c0.257,0,0.5,0.243,0.5,0.5V327.501z M271.5,336.001
		c-9.098,0-16.5-7.402-16.5-16.5s7.402-16.5,16.5-16.5s16.5,7.402,16.5,16.5S280.598,336.001,271.5,336.001z M319.5,336.001
		c-9.098,0-16.5-7.402-16.5-16.5s7.402-16.5,16.5-16.5s16.5,7.402,16.5,16.5S328.598,336.001,319.5,336.001z M350.091,312.001
		c-3.374-13.759-15.806-24-30.591-24c-9.607,0-18.217,4.328-24,11.131c-5.783-6.803-14.393-11.131-24-11.131
		c-14.832,0-27.294,10.307-30.621,24.132c-0.448-0.083-0.907-0.132-1.379-0.132H231v-0.5c0-8.547-6.953-15.5-15.5-15.5h-40
		c-8.547,0-15.5,6.953-15.5,15.5v0.5h-9.909c-3.374-13.759-15.806-24-30.591-24c-9.607,0-18.217,4.328-24,11.131
		c-5.783-6.803-14.393-11.131-24-11.131c-11.116,0-20.898,5.793-26.506,14.513l-12.385-4.733c-0.392-0.149-0.795-0.267-1.207-0.349
		c-0.233-0.046-0.402-0.253-0.402-0.49v-9.441c0-0.275,0.224-0.5,0.5-0.5H352v25H350.091z M411.604,237.166l9.953,34.835H399.5
		c-4.687,0-8.5-3.813-8.5-8.5v-32.5h12.431C407.206,231.001,410.567,233.536,411.604,237.166z M367,231.001h9v32.5
		c0,12.958,10.542,23.5,23.5,23.5H424v24.5c0,0.275-0.224,0.5-0.5,0.5H367V231.001z M352,272.001h-9v-25h9V272.001z M247,247.501
		c0-0.275,0.224-0.5,0.5-0.5H328v25h-81V247.501z M104,272.001H87v-9h17V272.001z M120,248.001H55v-17h64.469
		c0.007,0,0.014,0.001,0.021,0.001c0.005,0,0.009-0.001,0.014-0.001H120V248.001z M135,228.581v-4.08c0-4.687-3.813-8.5-8.5-8.5
		h-0.495l-1.286-9h66.388L135,228.581z M496,211.365l-16.724-8.362c-0.17-0.085-0.276-0.257-0.276-0.447v-14.92l16.724,8.362
		c0.17,0.085,0.276,0.257,0.276,0.447V211.365z"/>
</g>
<g>
</g>
<g>
</g>
<g>
</g>
<g>
</g>
<g>
</g>
<g>
</g>
<g>
</g>
<g>
</g>
<g>
</g>
<g>
</g>
<g>
</g>
<g>
</g>
<g>
</g>
<g>
</g>
<g>
</g>
</svg>
